<svg width="38" height="37" viewBox="0 0 38 37" fill="none" xmlns="http://www.w3.org/2000/svg">
<path d="M27 2.87081C27 2.10936 26.6991 1.37927 26.1631 0.840738C25.6273 0.302375 24.9007 0 24.1429 0H9.85714C9.09932 0 8.3727 0.30238 7.8369 0.840738C7.30098 1.37923 7 2.10932 7 2.87081V12.1292C7 12.8906 7.30094 13.6207 7.8369 14.1593C8.3727 14.6976 9.09928 15 9.85714 15H24.1429C24.9007 15 25.6273 14.6976 26.1631 14.1593C26.699 13.6208 27 12.8907 27 12.1292V2.87081ZM26.0477 12.1292C26.0441 12.3458 26.0037 12.5602 25.9286 12.7632L20.631 6.71779L26.0477 4.12218L26.0477 12.1292ZM9.85723 0.956938H24.1429C24.6482 0.956938 25.1326 1.15853 25.4899 1.51747C25.847 1.87642 26.0477 2.36321 26.0477 2.87086V3.06227L17.1213 7.342C17.0552 7.37454 16.9778 7.37454 16.9119 7.342L7.95226 2.8179C7.96588 2.31961 8.17265 1.84618 8.52841 1.49857C8.88416 1.15097 9.36081 0.956532 9.85707 0.956703L9.85723 0.956938ZM8.07151 12.7896C7.99346 12.579 7.9531 12.3564 7.95243 12.1317V3.8879L13.4431 6.66054L8.07151 12.7896ZM9.85723 14.0432C9.40931 14.0426 8.97598 13.8834 8.63338 13.5935L14.3217 7.103L16.4836 8.19387C16.8141 8.35657 17.2008 8.35657 17.5313 8.19387L19.736 7.13401L25.3789 13.5741C25.0347 13.8792 24.5926 14.049 24.1338 14.0525L9.85723 14.0432Z" fill="black"/>
<path d="M7.448 26.306H2.394V29.414H7.112V30.52H2.394V33.894H7.448V35H1.232V25.2H7.448V26.306ZM17.8244 27.146C18.6364 27.146 19.2664 27.398 19.7144 27.902C20.1624 28.3967 20.3864 29.0967 20.3864 30.002V35H19.2244V30.212C19.2244 28.9053 18.6457 28.252 17.4884 28.252C16.7884 28.252 16.2517 28.5133 15.8784 29.036C15.5051 29.5587 15.3184 30.2307 15.3184 31.052L15.3324 35H14.1564V30.212C14.1564 28.9053 13.5777 28.252 12.4204 28.252C11.7297 28.252 11.1977 28.5133 10.8244 29.036C10.4511 29.5587 10.2644 30.2307 10.2644 31.052V35H9.10241V27.3H10.2644V28.756C10.8057 27.6827 11.6411 27.146 12.7704 27.146C13.3957 27.146 13.9137 27.3 14.3244 27.608C14.7351 27.9067 15.0197 28.3407 15.1784 28.91C15.7197 27.734 16.6017 27.146 17.8244 27.146ZM28.6495 27.3H29.8115V35H28.6495V33.446C28.3415 33.978 27.9308 34.398 27.4175 34.706C26.9135 35.0047 26.3348 35.154 25.6815 35.154C24.6361 35.154 23.7728 34.7807 23.0915 34.034C22.4195 33.278 22.0835 32.3167 22.0835 31.15C22.0835 29.9833 22.4195 29.0267 23.0915 28.28C23.7728 27.524 24.6361 27.146 25.6815 27.146C26.3348 27.146 26.9181 27.3 27.4315 27.608C27.9448 27.916 28.3508 28.3407 28.6495 28.882V27.3ZM25.9055 34.048C26.6988 34.048 27.3568 33.7773 27.8795 33.236C28.4021 32.6853 28.6635 31.99 28.6635 31.15C28.6635 30.31 28.4021 29.6193 27.8795 29.078C27.3568 28.5273 26.6988 28.252 25.9055 28.252C25.1215 28.252 24.4821 28.5273 23.9875 29.078C23.5021 29.6193 23.2595 30.31 23.2595 31.15C23.2595 31.9993 23.5068 32.6947 24.0015 33.236C24.4961 33.7773 25.1308 34.048 25.9055 34.048ZM31.8798 24.136C32.0384 23.9867 32.2344 23.912 32.4678 23.912C32.7011 23.912 32.8924 23.9867 33.0418 24.136C33.2004 24.2853 33.2798 24.4673 33.2798 24.682C33.2798 24.906 33.2004 25.0927 33.0418 25.242C32.8924 25.3913 32.7011 25.466 32.4678 25.466C32.2344 25.466 32.0384 25.3913 31.8798 25.242C31.7304 25.0927 31.6558 24.906 31.6558 24.682C31.6558 24.4673 31.7304 24.2853 31.8798 24.136ZM31.8798 35V27.3H33.0418V35H31.8798ZM35.1483 35V24.22H36.3103V35H35.1483Z" fill="black"/>
</svg>
