<svg width="34" height="38" viewBox="0 0 34 38" fill="none" xmlns="http://www.w3.org/2000/svg">
<path d="M24.4664 3.20264H23.4078L23.4077 1.64703C23.4077 0.739005 22.6689 0.00015978 21.7608 0.00015978L12.2389 0C11.3309 0 10.5921 0.738805 10.5921 1.64687V3.20265H9.53355C8.68783 3.20265 8 3.89048 8 4.73621V13.2638C8 14.1096 8.68783 14.7974 9.53355 14.7974H10.5921V16.7839C10.5921 17.4545 11.1376 18 11.8081 18H22.1919C22.8625 18 23.4079 17.4545 23.4079 16.7839V14.7974H24.4665C25.3122 14.7974 26 14.1096 26 13.2638V4.73621C25.9997 3.89048 25.3118 3.20232 24.4663 3.20232L24.4664 3.20264ZM11.7172 1.64703C11.7172 1.35926 11.9511 1.12501 12.2392 1.12501H21.7615C22.0493 1.12501 22.2835 1.35925 22.2835 1.64703V3.2028L11.7174 3.20265L11.7172 1.64703ZM22.2825 16.7843C22.2825 16.8327 22.24 16.8752 22.1916 16.8752H11.8079C11.7595 16.8752 11.717 16.8327 11.717 16.7843V11.0451C11.717 10.9967 11.7595 10.9542 11.8079 10.9542H22.1916C22.24 10.9542 22.2825 10.9967 22.2825 11.0451V14.7977V16.7843ZM24.8748 13.2639C24.8748 13.4892 24.6915 13.6724 24.4662 13.6724H23.4077L23.4075 11.0452C23.4075 10.3746 22.862 9.82911 22.1915 9.82911L11.8078 9.82895C11.1372 9.82895 10.5917 10.3744 10.5917 11.045L10.5915 13.6726H9.53301C9.30772 13.6726 9.12445 13.4893 9.12445 13.264V4.73641C9.12445 4.51112 9.30772 4.32786 9.53301 4.32786H24.466C24.6913 4.32786 24.8745 4.51112 24.8745 4.73641L24.8748 13.2639ZM23.4079 6.04721C23.4079 6.35783 23.1562 6.6098 22.8453 6.6098H20.3654C20.0547 6.6098 19.8028 6.35815 19.8028 6.04721C19.8028 5.73627 20.0544 5.48462 20.3654 5.48462H22.8453C23.1559 5.48462 23.4079 5.7366 23.4079 6.04721Z" fill="black"/>
<path d="M5.166 26.2C6.23 26.2 7.06067 26.494 7.658 27.082C8.25533 27.6607 8.554 28.412 8.554 29.336C8.554 30.2693 8.25067 31.0347 7.644 31.632C7.04667 32.2293 6.22067 32.528 5.166 32.528H2.394V36H1.232V26.2H5.166ZM5.124 31.422C5.86133 31.422 6.42133 31.226 6.804 30.834C7.18667 30.442 7.378 29.9473 7.378 29.35C7.378 28.7527 7.18667 28.2627 6.804 27.88C6.42133 27.4973 5.86133 27.306 5.124 27.306H2.394V31.422H5.124ZM14.1432 28.146C14.3112 28.146 14.4698 28.1553 14.6192 28.174V29.364C14.4512 29.3453 14.2878 29.336 14.1292 29.336C13.2985 29.336 12.6358 29.602 12.1412 30.134C11.6465 30.6567 11.3992 31.3987 11.3992 32.36V36H10.2372V28.3H11.3992V30.022C11.9032 28.7713 12.8178 28.146 14.1432 28.146ZM16.0204 25.136C16.179 24.9867 16.375 24.912 16.6084 24.912C16.8417 24.912 17.033 24.9867 17.1824 25.136C17.341 25.2853 17.4204 25.4673 17.4204 25.682C17.4204 25.906 17.341 26.0927 17.1824 26.242C17.033 26.3913 16.8417 26.466 16.6084 26.466C16.375 26.466 16.179 26.3913 16.0204 26.242C15.871 26.0927 15.7964 25.906 15.7964 25.682C15.7964 25.4673 15.871 25.2853 16.0204 25.136ZM16.0204 36V28.3H17.1824V36H16.0204ZM23.1669 28.146C24.0349 28.146 24.7163 28.4073 25.2109 28.93C25.7056 29.4527 25.9529 30.1807 25.9529 31.114V36H24.7909V31.338C24.7909 29.9473 24.1423 29.252 22.8449 29.252C22.0703 29.252 21.4683 29.504 21.0389 30.008C20.6189 30.512 20.4089 31.1933 20.4089 32.052V36H19.2469V28.3H20.4089V29.826C20.9689 28.706 21.8883 28.146 23.1669 28.146ZM33.2242 34.698L33.4342 35.664C32.8182 35.9907 32.1229 36.154 31.3482 36.154C30.4989 36.154 29.8269 35.888 29.3322 35.356C28.8375 34.8147 28.5902 34.0493 28.5902 33.06V29.392H27.1062V28.3H28.5902V26.452L29.7522 26.2V28.3H33.2102V29.392H29.7522V33.004C29.7522 34.3853 30.3495 35.076 31.5442 35.076C31.9735 35.076 32.5335 34.95 33.2242 34.698Z" fill="black"/>
</svg>
