<svg width="100" height="60" viewBox="0 0 100 60" fill="none" xmlns="http://www.w3.org/2000/svg">
<path d="M28 18C29.3304 18 29.3363 16 28 16C26.6637 16 26.6696 18 28 18Z" fill="#434343"/>
<path d="M59.8019 19.4032C59.7002 18.6451 60.2703 18.0252 60.7641 17.6304C61.4317 17.1192 62.1661 16.7199 62.9427 16.4459C64.7582 15.751 66.6936 15.6563 68.6144 15.6997C69.7317 15.7015 70.8478 15.7846 71.9549 15.9484C73.0855 16.1861 74.1639 16.6564 75.1321 17.3343C77.0565 18.6056 78.7159 20.3192 80.4624 21.8669C81.9148 23.1541 83.32 24.4886 84.1334 26.4154C84.6081 27.6334 84.9482 28.9084 85.1465 30.2136C85.2709 30.9003 85.3341 31.5985 85.3353 32.2984C85.3353 32.8314 85.259 33.3605 85.2445 33.8777C85.2227 34.8608 85.4878 35.8518 86.3628 36.2467C87.3033 36.6652 88.2946 36.1124 89.1878 35.7808C90.1563 35.4765 91.1703 35.3812 92.1725 35.5004C93.2279 35.542 94.2397 35.969 95.0446 36.7126C95.9963 37.6083 96.7593 38.7166 97.2813 39.962C97.5403 40.5633 97.7246 41.1992 97.8296 41.8533C97.9349 42.5363 97.9204 43.2273 98.0511 43.9103C98.3234 45.3199 98.8826 46.7886 98.3017 48.1982C97.8514 49.2919 96.94 50.0776 96.3373 51.0646C96.3 51.1361 96.2802 51.2168 96.2797 51.299C96.2792 51.3811 96.298 51.4621 96.3344 51.5341C96.3708 51.6061 96.4236 51.6668 96.4876 51.7104C96.5517 51.754 96.6249 51.7791 96.7004 51.7832C97.8224 51.7595 98.5776 52.3952 98.879 53.6192C99.0957 54.6853 99.1787 55.7784 99.1259 56.8687C99.1259 57.682 99.0351 58.5901 98.1564 58.6138C97.9224 58.6186 97.6893 58.5813 97.4665 58.5033C97.2059 58.4151 96.9332 58.3763 96.6604 58.3888H73.4872C70.0595 58.3888 66.6137 58.2822 63.1896 58.5112C59.86 58.7362 56.5049 59.2337 53.1644 59.0126C51.5377 58.902 49.9218 58.6178 48.3024 58.4085C46.6988 58.2348 45.0846 58.2071 43.4768 58.3256C41.861 58.4006 40.2415 58.3927 38.6221 58.448C37.0027 58.5033 35.3142 58.5743 33.6621 58.5309C32.0088 58.5221 30.3644 58.267 28.7747 57.7728C28.0451 57.509 27.3033 57.2863 26.5526 57.1056C25.7681 56.999 24.9749 56.991 24.1888 57.0819C23.3951 57.0798 22.6077 56.9289 21.8613 56.6357C21.1406 56.4062 20.3967 56.2736 19.6463 56.2409C17.9434 56.1343 16.2441 56.2211 14.5447 56.2883C13.7278 56.3159 12.9108 56.3435 12.0938 56.3435V57.299L12.5731 57.2635C12.5368 56.9516 12.5005 56.6397 12.4605 56.3277C11.4838 56.5488 11.3712 55.3091 11.3095 54.4799C11.2405 53.3665 11.3422 52.2373 11.1715 51.1318C10.8375 48.9879 10.133 46.9308 9.62107 44.8382C9.0907 42.6489 8.84623 40.3894 8.89486 38.1261C8.88217 37.1339 9.05511 36.1492 9.40321 35.2319C9.75192 34.4119 10.1843 33.6372 10.6922 32.9222C11.1897 32.1997 11.7343 31.5245 12.2282 30.7941C12.722 30.0636 13.2049 29.2976 13.942 28.8475C14.6791 28.3974 15.5396 28.3145 16.3385 28.1092C17.1373 27.9039 17.987 27.5643 18.8221 27.3195C20.4609 26.9163 22.1383 26.728 23.8184 26.7589C25.6521 26.7589 27.9868 26.364 29.5264 27.7933C30.1272 28.4403 30.6876 29.1302 31.2039 29.8583C31.8357 30.6258 32.5296 31.3301 33.2772 31.9627C33.6403 32.2865 34.0034 31.6864 33.8509 31.3073C33.4228 30.2766 33.1483 29.1784 33.0376 28.0539C32.9867 27.0001 33.0921 25.9443 33.3498 24.9269C33.8073 22.9211 33.9889 20.8364 34.5771 18.8662C35.1271 17.1862 36.0182 15.6626 37.1842 14.4086C38.3423 13.0687 39.6556 11.8981 41.0912 10.9262C42.3838 10.0497 43.8326 9.27579 45.3467 9.10206C47.0092 8.87031 48.6933 8.89156 50.3503 9.16522C52.0423 9.45033 53.6115 10.2987 54.8419 11.5934C55.4227 12.2772 55.9117 13.0468 56.2943 13.8795C56.9299 15.0829 57.4728 16.3414 57.9174 17.6422C58.105 18.1479 58.2272 18.6794 58.2805 19.2216C58.2868 19.3537 58.2795 19.4861 58.2587 19.6164C58.2187 19.7112 58.2587 19.6638 58.1897 19.723C58.2696 19.6519 58.1389 19.723 58.1897 19.723C58.1529 19.7283 58.1166 19.7362 58.0808 19.7467C57.547 19.8375 57.7721 20.7574 58.3023 20.6666C60.3393 20.3152 58.128 15.7471 57.7068 14.8192C57.2448 13.7633 56.7121 12.7459 56.1128 11.7751C55.1787 10.4172 53.8966 9.38973 52.4272 8.82172C50.6938 8.17009 48.8581 7.90162 47.0279 8.03206C46.1753 8.04215 45.3251 8.13066 44.4862 8.29661C43.6751 8.49718 42.889 8.80202 42.1442 9.20472C40.4891 10.0927 38.9624 11.2393 37.6127 12.6082C36.2917 13.8454 35.185 15.3297 34.3447 16.9908C33.299 19.2255 33.1102 21.788 32.6091 24.2122C32.3441 25.4954 32.0681 26.7352 32.1625 28.0658C32.2862 29.3569 32.6001 30.6181 33.092 31.8009L33.6694 31.1494C32.9457 30.5277 32.2771 29.8337 31.6723 29.0765C31.1717 28.3805 30.6295 27.721 30.0492 27.1024C28.5968 25.756 26.5598 25.76 24.7879 25.8073C22.9506 25.8587 21.1569 25.8389 19.3413 26.2377C18.4263 26.443 17.5258 26.7352 16.6399 27.0274C15.8047 27.3037 14.9224 27.3827 14.0981 27.7183C13.2969 28.0629 12.6019 28.6475 12.0938 29.4042C11.5383 30.1939 11.0045 30.9599 10.4344 31.7338C9.34512 33.2538 8.30301 34.9279 8.08515 36.9258C7.8845 39.2773 8.03904 41.6486 8.54265 43.9459C9.01106 46.2635 9.7881 48.4864 10.2456 50.808C10.5252 52.2255 10.34 53.6745 10.5179 55.1077C10.554 55.7329 10.7656 56.3311 11.1243 56.8213C11.3258 57.0349 11.576 57.1863 11.8491 57.2599C12.1223 57.3335 12.4085 57.3265 12.6784 57.2398C13.1395 57.1332 13.0415 56.2685 12.5658 56.3041L12.0865 56.3356C11.5491 56.3751 11.5383 57.2911 12.0865 57.2911C13.8476 57.2911 15.6014 57.1648 17.3624 57.1411C18.2375 57.1411 19.1126 57.1411 19.984 57.2082C20.7977 57.3128 21.5995 57.5073 22.3769 57.7886C23.1291 57.9993 23.9091 58.0675 24.6826 57.99C25.5369 57.9114 26.3973 57.9969 27.2243 58.2427C28.0159 58.4796 28.7965 58.7757 29.5954 58.9928C30.3982 59.1991 31.2157 59.3312 32.039 59.3877C33.7424 59.5008 35.45 59.5193 37.1551 59.443C38.869 59.3877 40.5865 59.3679 42.3039 59.3166C44.0214 59.2653 45.699 59.0955 47.3874 59.2416C49.0758 59.3877 50.6771 59.7193 52.3256 59.8812C55.8005 60.2247 59.2899 59.7391 62.7539 59.4864C66.3268 59.2258 69.9179 59.3285 73.4945 59.3285H96.2211C96.5679 59.296 96.9172 59.324 97.2559 59.4114C97.7354 59.5872 98.2517 59.6064 98.741 59.4667C99.5979 59.1942 99.903 58.2822 99.9683 57.3504C100.036 56.2577 99.9949 55.1602 99.8448 54.0772C99.6923 52.9638 99.2711 51.8109 98.3634 51.2305C97.8559 50.9342 97.2826 50.7975 96.7076 50.8357L97.0707 51.5543C97.6553 50.5948 98.5014 49.8525 98.9807 48.7904C99.5289 47.6059 99.4636 46.3227 99.1876 45.0632C99.0497 44.4236 98.8681 43.7879 98.7846 43.1325C98.7011 42.4771 98.7083 41.8138 98.5667 41.1584C98.279 39.9123 97.7668 38.7408 97.0599 37.7115C96.4319 36.7318 95.6293 35.8993 94.6997 35.2635C93.7375 34.6476 92.5719 34.5134 91.4826 34.5134C90.4554 34.4903 89.4329 34.671 88.4652 35.0464C87.5611 35.4096 86.1922 35.836 86.0978 34.2765C86.0906 33.7845 86.1124 33.2926 86.1631 32.8037C86.202 32.0902 86.1716 31.3743 86.0724 30.6677C85.8947 29.221 85.5583 27.8026 85.0702 26.443C84.2968 24.3425 82.917 22.8343 81.3629 21.4484C79.5474 19.8296 77.8045 18.045 75.8256 16.6789C74.8426 15.9593 73.755 15.4254 72.6085 15.0995C71.4455 14.8557 70.2635 14.7353 69.0792 14.7402C66.8134 14.6494 64.5258 14.7402 62.3799 15.6405C60.8803 16.2643 58.7017 17.4409 58.9958 19.6322C59.0793 20.2363 59.889 19.9797 59.8091 19.3756L59.8019 19.4032Z" fill="#434343"/>
<path d="M14.4698 30.1356C12.3193 29.6465 11.9437 26.6784 11.8445 24.7144C11.7438 23.5984 11.7819 22.4735 11.9579 21.3676C12.2724 20.007 12.9107 18.75 13.8144 17.7118C14.745 16.6227 15.7696 15.6243 16.8754 14.729L18.3989 13.4675C18.9637 12.9449 19.5885 12.4965 20.2589 12.1325C21.6017 11.4815 23.1854 11.3969 24.6202 11.1247C26.1577 10.7307 27.7732 10.8203 29.2614 11.3822C30.0798 11.5881 30.9195 11.6727 31.7415 11.8677C32.1375 11.9446 32.5238 12.0679 32.8929 12.2355C33.201 12.4102 33.4948 12.6107 33.7716 12.8349C34.357 13.2299 34.9104 13.674 35.4261 14.1626C35.8619 14.615 36.287 15.2035 36.1665 15.8986C36.0673 16.4576 36.8751 16.6967 36.9602 16.134C37.233 14.5672 36.0532 13.4749 34.9868 12.6584C34.4726 12.2242 33.9252 11.8343 33.35 11.4925C32.6297 11.1507 31.8642 10.9226 31.0789 10.8158C30.2641 10.6724 29.4811 10.4921 28.6804 10.2678C27.8401 10.0356 26.968 9.95348 26.1012 10.0251C25.2225 10.0949 24.3581 10.2788 23.4936 10.437C22.7177 10.5767 21.9276 10.6724 21.1624 10.8746C20.396 11.0701 19.6691 11.4051 19.0154 11.864C18.4131 12.2943 17.8533 12.8129 17.2793 13.2873C16.0638 14.245 14.9121 15.287 13.8321 16.4061C12.7854 17.4809 11.9672 18.7714 11.43 20.1944C11.0013 21.4301 10.9801 22.7689 11.0084 24.0708C11.0615 26.5754 11.4973 30.36 14.2643 30.9889C14.7781 31.1066 15.0013 30.2533 14.4805 30.1319L14.4698 30.1356Z" fill="#434343"/>
<path d="M7.71806 11.1629C7.63915 11.1416 7.56157 11.1147 7.48581 11.0823C7.5588 11.1153 7.45263 11.0823 7.44931 11.0603L7.33651 10.9907C7.20549 10.9054 7.08408 10.8033 6.97485 10.6864C6.70943 10.4188 6.47055 10.1145 6.22503 9.82128C5.73067 9.22009 5.19981 8.61523 4.45329 8.50525L4.82489 8.83151L4.75522 8.32197C4.74247 8.26726 4.72007 8.21588 4.68929 8.17076C4.65852 8.12565 4.61999 8.0877 4.5759 8.05909C4.53182 8.03048 4.48304 8.01176 4.4324 8.00403C4.38175 7.9963 4.33021 7.99972 4.28076 8.01405C4.18247 8.05181 4.10046 8.12871 4.05076 8.22972C4.00106 8.33073 3.98725 8.44858 4.01201 8.56025L4.08169 9.06613C4.10372 9.15738 4.15176 9.23836 4.21868 9.29712C4.2856 9.35587 4.36786 9.38926 4.45329 9.39236C4.36371 9.39236 4.47983 9.39236 4.49974 9.39236L4.61254 9.42904C4.62913 9.42904 4.71872 9.48036 4.64573 9.42904C4.67765 9.44393 4.70868 9.46108 4.73862 9.48036C4.81254 9.52483 4.88351 9.57505 4.95097 9.63065L5.04055 9.70397C4.98746 9.65631 5.08036 9.74429 5.08036 9.74429C5.34384 10.0091 5.59205 10.292 5.82356 10.5911C6.29469 11.1629 6.81892 11.8118 7.51235 11.9877C7.6126 12.0146 7.71837 11.997 7.80704 11.9388C7.89571 11.8805 7.96023 11.7863 7.9868 11.6762C8.01305 11.5649 7.99984 11.4468 7.94989 11.346C7.89994 11.2451 7.81701 11.1691 7.71806 11.1336V11.1629Z" fill="#434343"/>
<path d="M19.6979 3.25555L19.2098 3.16423L19.4983 3.42876C19.4371 3.15931 19.4239 2.88305 19.4592 2.61C19.4878 2.32118 19.4662 2.03019 19.395 1.74717C19.2561 1.23388 18.8927 0.802471 18.8108 0.276585C18.7971 0.229589 18.773 0.185449 18.74 0.146695C18.707 0.107941 18.6656 0.0753272 18.6182 0.0507484C18.5709 0.0261696 18.5185 0.0101067 18.4641 0.003467C18.4098 -0.00317268 18.3544 -0.000257786 18.3013 0.0120584C18.1961 0.0438498 18.1081 0.109321 18.0547 0.195572C18.0013 0.281823 17.9863 0.382602 18.0128 0.478107C18.0947 1.00714 18.4617 1.42283 18.6006 1.94871C18.6534 2.20113 18.6618 2.45924 18.6255 2.71392C18.5951 3.02199 18.6203 3.33238 18.7003 3.63343C18.7184 3.69585 18.7545 3.75306 18.805 3.79944C18.8556 3.84581 18.919 3.87976 18.9889 3.89796L19.477 3.98927C19.5841 4.01244 19.6973 3.99776 19.7924 3.94837C19.8875 3.89898 19.9571 3.81878 19.9864 3.72477C20.0139 3.62881 19.9994 3.52724 19.9459 3.44029C19.8925 3.35334 19.8039 3.28736 19.6979 3.25555Z" fill="#434343"/>
<path d="M5.54254 26H0.457464C0.336136 26 0.219781 26.0527 0.133989 26.1464C0.0481972 26.2402 0 26.3674 0 26.5C0 26.6326 0.0481972 26.7598 0.133989 26.8535C0.219781 26.9473 0.336136 27 0.457464 27H5.54254C5.66386 27 5.78022 26.9473 5.86601 26.8535C5.9518 26.7598 6 26.6326 6 26.5C6 26.3674 5.9518 26.2402 5.86601 26.1464C5.78022 26.0527 5.66386 26 5.54254 26Z" fill="#434343"/>
<path d="M18 22C19.3304 22 19.3363 20 18 20C16.6637 20 16.6696 22 18 22Z" fill="#434343"/>
<path d="M36.7502 4.87102L39.8796 1.7476C40.259 1.34763 39.6558 0.729483 39.2575 1.12946L36.1281 4.24924C35.7298 4.64921 36.3519 5.271 36.7502 4.87102Z" fill="#434343"/>
</svg>
