<svg width="74" height="24" viewBox="0 0 74 24" fill="none" xmlns="http://www.w3.org/2000/svg">
<g clip-path="url(#clip0_1_60735)">
<path d="M51.2419 24.0001C50.9258 24.0001 50.6097 23.8798 50.3695 23.6378C49.8873 23.1556 49.8873 22.3739 50.3695 21.8917L71.8995 0.361646C72.3817 -0.120549 73.1634 -0.120549 73.6456 0.361646C74.1278 0.843842 74.1278 1.6256 73.6456 2.1081L52.1159 23.6378C51.8739 23.8783 51.5578 24.0001 51.2419 24.0001Z" fill="#50735F"/>
<path d="M72.7735 24.0001C72.4573 24.0001 72.1415 23.8798 71.901 23.6378L50.3695 2.1081C49.8873 1.6256 49.8873 0.843842 50.3695 0.361646C50.8517 -0.120549 51.6334 -0.120549 52.1159 0.361646L73.6456 21.8917C74.1278 22.3739 74.1278 23.1556 73.6456 23.6378C73.4036 23.8783 73.0878 24.0001 72.7735 24.0001Z" fill="#50735F"/>
</g>
<path d="M3.7158 17.112H4.90581L5.9978 16.762L6.90781 15.866L6.09581 15.068L5.3678 15.754L4.7658 15.964H3.9398L3.0858 15.544L2.4138 14.634L2.2318 13.99V12.646L2.3998 11.988L3.0578 11.092L3.8978 10.658H4.7658L5.39581 10.854L6.09581 11.554L6.9218 10.784L5.9978 9.86L4.90581 9.51H3.7158L2.3158 10.182L1.3638 11.47L1.0698 12.492V14.158L1.3638 15.152L2.3158 16.44L3.7158 17.112ZM8.73754 17H9.89954V6.444H8.73754V17ZM14.3193 17.112H15.8033L17.2173 16.44L17.9173 15.404L18.1973 14.144V12.492L17.9173 11.232L17.2173 10.196L15.8033 9.51H14.3193L12.9053 10.196L12.2053 11.232L11.9253 12.492V14.144L12.2053 15.404L12.9053 16.44L14.3193 17.112ZM14.5153 15.978L13.6893 15.572L13.2693 14.942L13.0873 14.004V12.604L13.2693 11.694L13.6753 11.078L14.5153 10.658H15.6073L16.4193 11.078L16.8533 11.694L17.0353 12.604V14.004L16.8533 14.942L16.4333 15.572L15.6073 15.978H14.5153ZM21.5585 17.112H22.8045L23.7565 16.832L24.4285 16.356L24.9605 15.544V14.354L24.4145 13.458L23.6165 12.926L21.4745 12.506L21.0825 12.31L20.8025 11.932V11.316L20.9985 10.98L21.2365 10.784L21.7685 10.63H22.7065L23.4905 10.868L24.1625 11.33L24.7925 10.392L23.9525 9.818L22.8045 9.51H21.6145L20.7465 9.748L20.1165 10.238L19.6545 11.036V12.282L20.2425 13.094L21.1385 13.57L23.1545 13.976L23.5745 14.27L23.8125 14.676V15.208L23.5885 15.558L23.2385 15.81L22.6505 15.978H21.7125L20.8445 15.754L20.4665 15.46L20.2005 15.138L19.3885 15.922L19.7105 16.286L20.3685 16.804L21.5585 17.112ZM29.0771 17.112H30.2391L31.5271 16.79L32.4371 16.188L31.8211 15.264L31.0931 15.726L30.1411 15.964H29.3011L28.4471 15.544L27.7751 14.634L27.5931 14.018V13.878H32.9971V12.408L32.6751 11.47L31.7371 10.182L30.3231 9.51H29.0771L27.6771 10.182L26.7251 11.47L26.4311 12.492V14.158L26.7251 15.152L27.6771 16.44L29.0771 17.112ZM27.5931 12.73V12.604L27.7611 11.988L28.4191 11.092L29.2591 10.658H30.1271L30.9811 11.106L31.6531 12.016L31.8351 12.548V12.73H27.5931Z" fill="#50735F"/>
<defs>
<clipPath id="clip0_1_60735">
<rect width="24" height="24" fill="white" transform="translate(50)"/>
</clipPath>
</defs>
</svg>
