<svg width="32" height="31" viewBox="0 0 32 31" fill="none" xmlns="http://www.w3.org/2000/svg">
<path d="M11.1966 9.58409C11.0706 9.68488 10.9496 9.79373 10.8307 9.90359C10.6347 10.0858 10.4505 10.2804 10.2794 10.4862C10.0935 10.7102 9.92504 10.948 9.77545 11.1977C9.63616 11.4353 9.5126 11.6818 9.40555 11.9355C9.35616 12.0514 9.31282 12.1693 9.26747 12.2863L9.14954 12.5967C9.12031 12.6733 9.09915 12.7549 9.07496 12.8325C9.04472 12.9333 9.01348 13.0341 8.98324 13.1289C8.94595 13.2478 8.91974 13.3718 8.89253 13.4937C8.86028 13.6368 8.83609 13.782 8.81492 13.9271C8.76957 14.2375 8.73933 14.549 8.70909 14.8604C8.69095 15.0509 8.68289 15.2424 8.67079 15.4329C8.64761 15.7947 8.63249 16.1576 8.62141 16.5204C8.62141 16.6313 8.61435 16.7432 8.61133 16.855C8.61133 16.9488 8.61133 17.0435 8.61133 17.1373C8.61624 17.3121 8.63172 17.4864 8.65769 17.6593C8.69676 17.9271 8.76957 18.1889 8.87439 18.4384C8.98629 18.716 9.12114 18.9836 9.27755 19.2387C9.43473 19.4867 9.61026 19.7225 9.80266 19.9442C9.97609 20.1456 10.1681 20.3302 10.3762 20.4956C10.609 20.6829 10.8564 20.8514 11.1159 20.9995C11.353 21.1332 11.5977 21.253 11.8487 21.3583C12.1752 21.4974 12.5068 21.6204 12.8425 21.7353C13.0138 21.7937 13.1852 21.8582 13.3585 21.9106L14.053 22.1193C14.494 22.2544 14.9475 22.3452 15.4066 22.3904C15.6834 22.4123 15.9618 22.4048 16.2371 22.3682C16.5424 22.3331 16.8453 22.2796 17.1442 22.208C17.6813 22.0791 18.2082 21.9107 18.7205 21.704C19.2525 21.4894 19.7594 21.2174 20.2324 20.8927C20.7053 20.5681 21.1442 20.1966 21.5426 19.784C21.7311 19.5874 21.9125 19.3808 22.0839 19.1732C22.2719 18.9499 22.4382 18.7093 22.5808 18.4546C22.8636 17.9188 23.0246 17.3272 23.0524 16.722C23.062 16.4127 23.0418 16.1032 22.992 15.7978C22.9523 15.5229 22.8992 15.2498 22.8327 14.9783C22.7662 14.7052 22.6906 14.4331 22.5979 14.167C22.5054 13.8895 22.3908 13.6198 22.2552 13.3607C22.1181 13.1065 21.9438 12.8741 21.7382 12.6713C21.5316 12.4737 21.303 12.3006 21.0568 12.1552C20.5654 11.8616 20.0379 11.6332 19.4875 11.4759C19.2163 11.3987 18.9411 11.3364 18.6631 11.2894C18.3631 11.2372 18.0601 11.2035 17.756 11.1887C17.6169 11.1826 17.4788 11.1826 17.3407 11.1887C17.1704 11.1977 17.0021 11.2219 16.8368 11.2461C16.5566 11.2854 16.2795 11.3436 16.0073 11.4205C15.7246 11.5053 15.4492 11.6129 15.1838 11.742C14.9371 11.8584 14.7031 11.9999 14.4853 12.1643C14.2524 12.3378 14.0404 12.5377 13.8534 12.76C13.6642 12.9864 13.4955 13.2293 13.3494 13.4857C13.2078 13.7373 13.0929 14.0032 13.0068 14.2789C12.9206 14.563 12.8682 14.8563 12.8505 15.1527C12.8331 15.4544 12.864 15.7569 12.9423 16.0487C12.9839 16.1941 13.0385 16.3355 13.1055 16.471C13.2307 16.726 13.3939 16.9604 13.5893 17.1665C13.7014 17.2795 13.8246 17.3808 13.9572 17.4689C14.084 17.5478 14.2193 17.6123 14.3604 17.6614C14.4858 17.7092 14.6149 17.7466 14.7464 17.7732C15.0392 17.8327 15.3375 17.8611 15.6364 17.8579C15.9403 17.8544 16.2436 17.8274 16.5435 17.7773C16.8196 17.7349 17.0897 17.6664 17.3619 17.6019C17.5678 17.5518 17.7699 17.4872 17.9666 17.4084C18.1132 17.3526 18.2562 17.2879 18.395 17.2149C18.541 17.1333 18.6799 17.0396 18.8102 16.9347C19.0393 16.7533 19.2378 16.5361 19.3978 16.2916C19.4792 16.1627 19.5468 16.0255 19.5994 15.8824C19.656 15.7265 19.69 15.5632 19.7002 15.3976C19.7067 15.3353 19.7067 15.2725 19.7002 15.2102C19.6909 15.117 19.6743 15.0246 19.6508 14.934C19.6233 14.8467 19.5896 14.7615 19.55 14.679C19.5196 14.6131 19.4838 14.5497 19.4432 14.4895C19.2696 14.2256 19.0405 14.0027 18.7719 13.8364C18.6592 13.7692 18.5391 13.7151 18.4141 13.6751C18.2824 13.6375 18.1474 13.6129 18.011 13.6016C17.7469 13.5807 17.4812 13.5973 17.2218 13.6509C16.9952 13.6902 16.7719 13.7461 16.5535 13.8183C16.3025 13.8977 16.0579 13.9961 15.8218 14.1126C15.5927 14.2333 15.3783 14.3801 15.1828 14.55C15.082 14.6347 14.9812 14.7244 14.8804 14.813C14.824 14.8624 14.7696 14.9138 14.7151 14.9662C14.633 15.0477 14.5575 15.1357 14.4894 15.2293C14.4507 15.2953 14.4305 15.3705 14.4309 15.447C14.4308 15.5034 14.4418 15.5593 14.4633 15.6115C14.4849 15.6636 14.5165 15.711 14.5564 15.7509C14.5963 15.7908 14.6437 15.8224 14.6958 15.844C14.748 15.8655 14.8039 15.8765 14.8603 15.8764C14.9165 15.8767 14.9721 15.8658 15.0241 15.8444C15.076 15.8229 15.1231 15.7913 15.1626 15.7514C15.2479 15.6612 15.3402 15.5779 15.4388 15.5024C15.5336 15.4228 15.6323 15.3472 15.7301 15.2706C15.9432 15.1078 16.1741 14.9699 16.4185 14.8594C16.7841 14.7087 17.166 14.6008 17.5564 14.5379C17.6989 14.5214 17.8428 14.5191 17.9858 14.5308C18.0599 14.5438 18.133 14.5624 18.2045 14.5863C18.2724 14.6204 18.3378 14.6594 18.4 14.7032C18.4825 14.7741 18.559 14.8516 18.6288 14.935C18.6735 14.9991 18.7132 15.0665 18.7477 15.1366C18.7647 15.1839 18.7782 15.2324 18.788 15.2817C18.7905 15.3247 18.7905 15.3678 18.788 15.4107C18.7724 15.4917 18.7501 15.5713 18.7215 15.6486C18.6731 15.7498 18.6154 15.8463 18.5492 15.9369C18.4464 16.062 18.332 16.177 18.2075 16.2805C18.0499 16.3929 17.881 16.4885 17.7035 16.5658C17.4571 16.6623 17.2041 16.7414 16.9466 16.8026L16.6634 16.8742C16.5132 16.9115 16.361 16.9377 16.2068 16.9599C15.8356 17.0099 15.4597 17.0156 15.0871 16.977C14.9073 16.9498 14.7309 16.9035 14.5609 16.8389C14.4728 16.798 14.3888 16.7487 14.31 16.6918C14.2155 16.6132 14.1287 16.5258 14.0509 16.4307C13.9496 16.2939 13.8628 16.147 13.7919 15.9923C13.7391 15.8524 13.7006 15.7075 13.677 15.5599C13.6563 15.3649 13.6563 15.1683 13.677 14.9733C13.7148 14.7114 13.7824 14.4548 13.8786 14.2083C14.0125 13.91 14.1795 13.6277 14.3765 13.3667C14.535 13.167 14.7152 12.9855 14.9137 12.8255C15.1864 12.6263 15.4809 12.459 15.7916 12.3266C16.2152 12.1609 16.6571 12.0465 17.1079 11.9859C17.4897 11.9442 17.8752 11.949 18.2559 12C18.8368 12.0771 19.4059 12.2261 19.9501 12.4435C20.1295 12.5211 20.3049 12.6088 20.4773 12.7035C20.647 12.7935 20.8106 12.8945 20.9671 13.0059C21.1146 13.1232 21.2497 13.2552 21.3703 13.4C21.5009 13.5835 21.6114 13.7805 21.6999 13.9876C21.8256 14.3031 21.93 14.6267 22.0123 14.9562C22.0977 15.2855 22.165 15.6193 22.2139 15.956C22.2349 16.1189 22.2473 16.2827 22.2512 16.4468C22.2534 16.6105 22.2449 16.7741 22.226 16.9367C22.1822 17.2175 22.1064 17.4925 22.0002 17.7561C21.9462 17.8794 21.8846 17.9992 21.8158 18.1149C21.7428 18.2346 21.663 18.35 21.5769 18.4606C21.3685 18.7182 21.1461 18.9642 20.9107 19.1974C20.6765 19.4328 20.4281 19.6536 20.1668 19.8586C19.6758 20.2334 19.1415 20.5478 18.5754 20.7949C18.217 20.9408 17.8509 21.067 17.4788 21.1729C17.0969 21.2895 16.7077 21.3804 16.3137 21.445C16.1474 21.4652 15.9811 21.4803 15.8097 21.4843C15.638 21.4885 15.4662 21.4801 15.2957 21.4591C14.9394 21.4031 14.5877 21.3209 14.2434 21.2132L13.5813 21.0116C13.4119 20.9592 13.2456 20.8967 13.0773 20.8382C12.8011 20.7435 12.527 20.6447 12.2559 20.5359C11.8189 20.3518 11.4049 20.1174 11.0222 19.8374C10.8875 19.7305 10.759 19.6161 10.6372 19.4947C10.5112 19.3667 10.3921 19.2322 10.2804 19.0916C10.0619 18.7989 9.87794 18.482 9.73211 18.1472C9.68629 18.0351 9.64626 17.9207 9.61217 17.8045C9.57763 17.6824 9.55104 17.5581 9.53254 17.4326C9.50785 17.1133 9.50381 16.7928 9.52045 16.4731C9.52045 16.2926 9.52952 16.1132 9.53657 15.9328C9.55069 15.5639 9.56177 15.194 9.59302 14.8241C9.61318 14.5712 9.63333 14.3202 9.66458 14.0682C9.69835 13.8154 9.74954 13.5651 9.81778 13.3193L9.9478 12.8678C9.97602 12.767 10.0153 12.6733 10.0486 12.5765C10.097 12.4425 10.1433 12.3074 10.1978 12.1734C10.2854 11.9718 10.3822 11.7702 10.489 11.5817C10.5975 11.3907 10.7187 11.2072 10.8519 11.0324C10.987 10.862 11.131 10.6989 11.2833 10.5436C11.4112 10.4106 11.5458 10.2841 11.6864 10.1646L12.1148 9.80381L12.4615 9.54579C12.5774 9.45911 12.7024 9.38352 12.8243 9.30289C12.9463 9.22226 13.0582 9.15977 13.1781 9.09123C13.3994 8.96118 13.6275 8.84308 13.8615 8.73746C14.1824 8.60459 14.518 8.51053 14.8613 8.45726C15.0673 8.4314 15.2755 8.42869 15.4821 8.4492C15.5417 8.45864 15.6004 8.47313 15.6575 8.49254C15.722 8.52278 15.7845 8.55503 15.847 8.59333C15.8857 8.61596 15.9284 8.63076 15.9728 8.63688C16.0171 8.643 16.0623 8.64032 16.1056 8.629C16.1489 8.61767 16.1896 8.59793 16.2253 8.57088C16.261 8.54384 16.291 8.51002 16.3137 8.47137C16.3363 8.43273 16.3511 8.39 16.3572 8.34563C16.3633 8.30126 16.3607 8.25612 16.3493 8.21279C16.338 8.16946 16.3183 8.12878 16.2912 8.09308C16.2642 8.05738 16.2304 8.02735 16.1917 8.00472C16.0708 7.93781 15.9452 7.87986 15.8158 7.83136C15.7565 7.81143 15.6954 7.79759 15.6333 7.79004C15.5389 7.77493 15.4436 7.76484 15.3481 7.7598C15.2977 7.7598 15.2473 7.75476 15.1979 7.75476C14.9528 7.75788 14.7085 7.78387 14.4682 7.83237C14.1998 7.88441 13.9367 7.96064 13.682 8.06015C13.4558 8.14605 13.2356 8.24706 13.0229 8.36252C12.914 8.42098 12.8052 8.47944 12.6973 8.5389C12.6389 8.57015 12.5804 8.60139 12.524 8.63969C12.3607 8.74048 12.1944 8.84127 12.0362 8.95315C11.8588 9.07913 11.6804 9.20411 11.511 9.34018L11.1966 9.58409Z" fill="white"/>
<path d="M19.1894 7.36779C19.3819 7.16621 19.5764 6.96967 19.772 6.77212L20.0481 6.49394C20.0784 6.4637 20.1076 6.43246 20.1388 6.40424L21.057 5.57676C21.178 5.4679 21.306 5.36611 21.431 5.26128L21.8543 4.90247L21.946 4.82587C22.0077 4.84282 22.0728 4.84287 22.1345 4.82603C22.1962 4.80918 22.2522 4.77606 22.2967 4.73013C22.3542 4.66663 22.4106 4.60313 22.4651 4.53862C22.5852 4.40502 22.6963 4.2636 22.7977 4.11531C22.8317 4.05634 22.8497 3.98946 22.8498 3.92136C22.8499 3.85326 22.8321 3.78633 22.7982 3.72725C22.7644 3.66818 22.7156 3.61903 22.6568 3.58472C22.5979 3.55041 22.5311 3.53214 22.463 3.53174L22.3623 3.54585C22.2976 3.56381 22.2388 3.59858 22.1919 3.64664C22.0337 3.77666 21.8815 3.91373 21.7273 4.0498C21.5731 4.18586 21.4501 4.2927 21.31 4.41365C21.0268 4.65957 20.7385 4.90147 20.4604 5.15445L19.9423 5.61808L19.7105 5.82974C19.6792 5.85796 19.647 5.88517 19.6168 5.9144C19.3043 6.22987 18.9919 6.54434 18.6844 6.86384C18.6514 6.89693 18.6251 6.93621 18.6072 6.97944C18.5893 7.02268 18.5801 7.06902 18.5801 7.11581C18.5801 7.16261 18.5893 7.20894 18.6072 7.25218C18.6251 7.29541 18.6514 7.3347 18.6844 7.36779C18.7175 7.40088 18.7568 7.42712 18.8001 7.44503C18.8433 7.46294 18.8896 7.47216 18.9364 7.47216C18.9832 7.47216 19.0296 7.46294 19.0728 7.44503C19.116 7.42712 19.1553 7.40088 19.1884 7.36779H19.1894Z" fill="white"/>
<path d="M23.9556 10.452C24.0054 10.4817 24.0608 10.5009 24.1184 10.5084C24.176 10.5159 24.2344 10.5114 24.2902 10.4953C25.1684 10.1761 26.046 9.85427 26.9228 9.52973L27.2837 9.3987L27.58 9.29086L27.7564 9.22534C27.8088 9.20518 27.8571 9.18704 27.9126 9.16991L27.9438 9.15882C27.9586 9.15983 27.9734 9.15983 27.9882 9.15882C28.0764 9.159 28.1627 9.13298 28.2362 9.08404C28.3096 9.0351 28.3668 8.96546 28.4006 8.88394C28.4344 8.80242 28.4432 8.71271 28.426 8.62617C28.4087 8.53963 28.3661 8.46017 28.3036 8.39786C28.2694 8.36418 28.2316 8.33443 28.1908 8.30917C28.1159 8.26655 28.0309 8.24496 27.9448 8.24668H27.9237C27.8493 8.25222 27.7765 8.27135 27.709 8.30312C27.5931 8.34545 27.4792 8.38879 27.3643 8.43213L27.0619 8.54401L26.6084 8.71434C26.2509 8.84873 25.8928 8.98311 25.5339 9.1175L24.0554 9.66075C23.9471 9.69369 23.8549 9.76548 23.7963 9.86233C23.7673 9.91145 23.7484 9.96582 23.7405 10.0223C23.7326 10.0788 23.736 10.1363 23.7504 10.1915C23.7648 10.2466 23.79 10.2984 23.8245 10.3438C23.8591 10.3892 23.9022 10.4273 23.9516 10.456L23.9556 10.452Z" fill="white"/>
<path d="M31.8194 14.2195C31.7639 14.1876 31.701 14.1706 31.637 14.1701C31.5937 14.1701 31.5503 14.165 31.507 14.165C31.3505 14.1699 31.1943 14.1834 31.0393 14.2054C30.8508 14.2275 30.6614 14.2477 30.4729 14.2648C30.1 14.3001 29.726 14.3303 29.3531 14.3606C28.9419 14.3942 28.5307 14.4278 28.1194 14.4614L27.6558 14.5017L27.3061 14.5319C27.1831 14.542 27.0591 14.543 26.9352 14.542C26.9023 14.5101 26.8615 14.4877 26.817 14.4768C26.7726 14.466 26.726 14.4673 26.6822 14.4805C26.6268 14.4957 26.5757 14.5236 26.533 14.5621C26.4884 14.6128 26.4572 14.6738 26.4423 14.7395C26.4319 14.7798 26.4308 14.8218 26.4391 14.8626C26.4473 14.9033 26.4647 14.9416 26.49 14.9746C26.5152 15.0076 26.5476 15.0345 26.5848 15.0531C26.6219 15.0718 26.6628 15.0817 26.7044 15.0822C26.9059 15.0822 27.1075 15.0953 27.3091 15.0822L27.676 15.059L28.1658 15.0278L28.8219 14.9845C29.0326 14.9703 29.2432 14.9633 29.4539 14.9522C29.8117 14.9341 30.1695 14.922 30.5273 14.9109L31.0504 14.8968C31.1512 14.8968 31.2469 14.8968 31.3457 14.8887C31.4445 14.8806 31.5423 14.8817 31.64 14.8887C31.6871 14.8897 31.7339 14.8813 31.7777 14.864C31.8215 14.8467 31.8614 14.8208 31.895 14.7879C31.9627 14.7201 32.0006 14.6282 32.0006 14.5324C32.0006 14.4366 31.9627 14.3447 31.895 14.2769L31.8194 14.2195Z" fill="white"/>
<path d="M29.3828 21.2727C29.3412 21.2058 29.2833 21.1507 29.2145 21.1124C29.0397 20.9992 28.8552 20.9017 28.6632 20.8212L28.1723 20.5954C27.8202 20.4361 27.4692 20.2759 27.1191 20.1146L26.1273 19.657L26.0144 19.6097C25.9733 19.5987 25.931 19.5929 25.8884 19.5925C25.8459 19.5928 25.8035 19.5985 25.7625 19.6097C25.6418 19.6433 25.5394 19.7234 25.4776 19.8324C25.4158 19.9414 25.3998 20.0704 25.4329 20.1912C25.4479 20.2505 25.4749 20.3061 25.5122 20.3546C25.5494 20.4031 25.5962 20.4436 25.6496 20.4734C26.468 20.8517 27.2871 21.2273 28.1068 21.6003C28.3225 21.701 28.5432 21.7928 28.7549 21.9026C28.8616 21.9623 28.9871 21.9789 29.1056 21.949C29.2201 21.9165 29.3178 21.8415 29.3788 21.7393C29.4092 21.6866 29.4288 21.6284 29.4366 21.568C29.4444 21.5076 29.4401 21.4463 29.4241 21.3876L29.3828 21.2727Z" fill="white"/>
<path d="M20.5134 25.2922C20.5487 25.3668 20.5971 25.4383 20.6384 25.5099C20.6797 25.5814 20.7281 25.6752 20.7785 25.7538L20.9599 26.036C21.0698 26.2074 21.1837 26.3757 21.2946 26.546C21.4152 26.7194 21.5207 26.9029 21.61 27.0943C21.6448 27.1532 21.6943 27.2021 21.7537 27.236C21.8131 27.27 21.8803 27.2878 21.9487 27.2878C22.0171 27.2878 22.0843 27.27 22.1437 27.236C22.2031 27.2021 22.2526 27.1532 22.2873 27.0943C22.3142 27.0493 22.3315 26.9992 22.3383 26.9472C22.3451 26.8952 22.3411 26.8423 22.3266 26.7919C22.2815 26.6623 22.2266 26.5363 22.1624 26.415C22.1149 26.3312 22.0624 26.2504 22.0051 26.1731C21.8963 26.0179 21.7814 25.8707 21.6695 25.7135C21.61 25.6298 21.5546 25.5421 21.4961 25.4575C21.4568 25.399 21.4195 25.3406 21.3833 25.2801C21.3188 25.1712 21.2532 25.0624 21.1887 24.9525C21.1555 24.8971 21.1293 24.8386 21.101 24.7812L20.9085 24.3911C20.7775 24.0706 20.6455 23.7501 20.5175 23.4286C20.5054 23.3994 20.4923 23.3691 20.4802 23.3389C20.4472 23.2822 20.3998 23.2353 20.3428 23.2029C20.2858 23.1705 20.2212 23.1537 20.1556 23.1544C20.1216 23.1541 20.0877 23.1585 20.0549 23.1675C19.9608 23.1934 19.8806 23.2548 19.8311 23.3389C19.8053 23.3819 19.7887 23.4299 19.7823 23.4796C19.7759 23.5294 19.7798 23.58 19.7938 23.6281C19.8996 23.8962 20.0085 24.1643 20.1183 24.4345C20.1496 24.5131 20.1818 24.5907 20.2191 24.6693C20.2645 24.7812 20.3199 24.889 20.3723 24.9989L20.5134 25.2922Z" fill="white"/>
<path d="M16.2608 25.8798C16.3053 25.861 16.3428 25.8285 16.3676 25.787C16.3822 25.7618 16.3916 25.7339 16.3952 25.705C16.3988 25.6761 16.3967 25.6468 16.3888 25.6187L16.3676 25.5663C16.3484 25.534 16.3214 25.5069 16.289 25.4877C16.2406 25.4555 16.1847 25.4364 16.1267 25.4323L16.0683 25.4242C16.0293 25.4241 15.991 25.4345 15.9574 25.4544C15.9251 25.4737 15.898 25.5007 15.8788 25.533C15.8595 25.5668 15.8494 25.605 15.8496 25.6439C15.8345 25.781 15.8143 25.9171 15.7992 26.0541C15.7849 26.2015 15.7802 26.3496 15.7851 26.4976C15.7921 26.7597 15.8203 27.0197 15.8334 27.2817C15.8445 27.5055 15.8566 27.7293 15.8677 27.954C15.8859 28.3122 15.9043 28.67 15.9231 29.0274C15.9346 29.229 15.945 29.4276 15.9544 29.6231C15.9544 29.7098 15.9655 29.7964 15.9715 29.8831C15.9715 29.9416 15.9846 30 15.9927 30.0595C16.001 30.141 16.0189 30.2211 16.0461 30.2984C16.0572 30.3226 16.0673 30.3478 16.0784 30.373C16.1059 30.42 16.1453 30.459 16.1926 30.4861C16.2399 30.5132 16.2935 30.5275 16.348 30.5275C16.4025 30.5275 16.4561 30.5132 16.5034 30.4861C16.5507 30.459 16.59 30.42 16.6176 30.373C16.6287 30.3478 16.6388 30.3226 16.6488 30.2984C16.664 30.244 16.664 30.1865 16.6488 30.1321C16.6266 30.076 16.6097 30.018 16.5984 29.9587C16.5914 29.9224 16.5813 29.8841 16.5763 29.8468C16.5652 29.7723 16.5541 29.6977 16.544 29.6231C16.4997 29.2844 16.4543 28.9458 16.42 28.6061C16.3777 28.1788 16.3381 27.7518 16.3011 27.3251C16.281 27.0943 16.2588 26.8645 16.2427 26.6337C16.229 26.4751 16.226 26.3159 16.2336 26.1569C16.2386 26.0642 16.2497 25.9715 16.2608 25.8798Z" fill="white"/>
<path d="M10.8921 25.6308C10.9077 25.6398 10.9248 25.6457 10.9427 25.6482C10.9605 25.6506 10.9787 25.6495 10.9961 25.6449C11.0135 25.6403 11.0298 25.6323 11.0441 25.6214C11.0585 25.6105 11.0705 25.5969 11.0796 25.5814C11.1118 25.5118 11.1431 25.4413 11.1804 25.3727C11.2177 25.3042 11.2731 25.2095 11.3094 25.1238C11.3264 25.0955 11.3351 25.063 11.3346 25.0301C11.3348 24.9971 11.3261 24.9647 11.3094 24.9363C11.2931 24.9083 11.2697 24.8851 11.2415 24.869C11.2134 24.8529 11.1815 24.8445 11.1491 24.8446C11.0889 24.8449 11.0296 24.859 10.9758 24.8859C10.9325 24.9167 10.8914 24.9504 10.8528 24.9867C10.7827 25.06 10.7187 25.1389 10.6613 25.2226C10.4396 25.5058 10.2279 25.7981 10.0263 26.0964L9.59091 26.7425C9.51028 26.8634 9.43166 26.9854 9.35305 27.1073C9.24722 27.2706 9.14139 27.4339 9.03758 27.5982C8.93376 27.7625 8.836 27.9217 8.72916 28.085L8.60418 28.2866C8.581 28.3239 8.55782 28.3612 8.53363 28.3984C8.46243 28.4874 8.41091 28.5905 8.38244 28.7008C8.36731 28.7576 8.36731 28.8174 8.38244 28.8742C8.39757 28.9293 8.42693 28.9796 8.46758 29.0198C8.50824 29.0601 8.55875 29.089 8.61407 29.1036C8.66939 29.1182 8.72758 29.118 8.7828 29.103C8.83802 29.088 8.88834 29.0588 8.92872 29.0183C8.97658 28.9747 9.02074 28.9271 9.06076 28.8762L9.11317 28.8097C9.14255 28.7588 9.15818 28.7011 9.15852 28.6424C9.15862 28.6134 9.15454 28.5845 9.14643 28.5567C9.15953 28.5325 9.17163 28.5073 9.18372 28.4831C9.21497 28.4206 9.24823 28.3581 9.28451 28.2966C9.37119 28.1364 9.45484 27.9741 9.54656 27.8159L9.92049 27.1749C9.99306 27.0479 10.0717 26.9249 10.1483 26.8009C10.2645 26.6155 10.3798 26.43 10.494 26.2446C10.5756 26.1135 10.6603 25.9835 10.7449 25.8545C10.7913 25.7769 10.8407 25.7033 10.8921 25.6308Z" fill="white"/>
<path d="M5.13136 25.3234C5.13907 25.2951 5.1438 25.266 5.14547 25.2367L5.7502 24.7449C5.99814 24.5433 6.2471 24.3417 6.50008 24.1401L7.57651 23.3046C7.77204 23.1554 7.97059 23.0103 8.16713 22.8621L8.25684 22.7926C8.31181 22.7388 8.35147 22.6713 8.37174 22.597C8.40265 22.4836 8.38734 22.3625 8.32916 22.2603C8.27097 22.1581 8.17466 22.0831 8.06131 22.0518L7.94338 22.0356C7.86471 22.0353 7.7874 22.0562 7.71963 22.0961C7.44951 22.2977 7.17839 22.4993 6.91331 22.7009L6.33075 23.1524C6.05459 23.3671 5.77439 23.5757 5.50327 23.7975L4.4601 24.6471C4.18293 24.8729 3.90475 25.0986 3.63262 25.3305L3.42096 25.5109C3.34033 25.5784 3.26473 25.651 3.18914 25.7235C3.13568 25.7771 3.09717 25.8437 3.07746 25.9168C3.05775 25.9899 3.05751 26.0668 3.07678 26.14C3.09604 26.2132 3.13414 26.2801 3.18727 26.334C3.24041 26.3879 3.30673 26.4269 3.37963 26.4472C3.43526 26.4631 3.49355 26.4675 3.55092 26.46C3.60829 26.4526 3.66353 26.4335 3.71325 26.4039C4.13052 26.1247 4.54073 25.8364 4.95397 25.5532C5.03839 25.5 5.10124 25.4186 5.13136 25.3234Z" fill="white"/>
<path d="M4.1023 18.24C4.2928 18.2238 4.48228 18.2168 4.67176 18.2097C4.84846 18.2003 5.02559 18.203 5.20192 18.2178C5.23043 18.2224 5.25869 18.2284 5.28658 18.2359C5.31398 18.2442 5.3409 18.2539 5.36721 18.2652L5.39947 18.2803L5.48715 18.3176C5.56495 18.339 5.64766 18.3341 5.7224 18.3037C5.79714 18.2732 5.85972 18.2189 5.90039 18.1492C5.92487 18.107 5.94069 18.0602 5.94692 18.0118C5.95315 17.9633 5.94967 17.9141 5.93667 17.867C5.9247 17.8212 5.90364 17.7782 5.87472 17.7406C5.84581 17.703 5.80963 17.6716 5.76835 17.6483C5.63895 17.5817 5.50088 17.5336 5.35814 17.5052C5.20634 17.4826 5.05303 17.4714 4.89955 17.4719H4.86931C4.59113 17.4719 4.31295 17.4847 4.03478 17.5102C3.73241 17.5364 3.42298 17.5707 3.11759 17.611L2.4544 17.6927C2.2256 17.7209 1.99681 17.7582 1.76903 17.7935L0.993957 17.8983C0.818989 17.9091 0.645667 17.9385 0.476907 17.986C0.411403 18.0034 0.351841 18.0382 0.304557 18.0868C0.26808 18.123 0.239131 18.1661 0.219377 18.2136C0.199622 18.2611 0.189453 18.312 0.189453 18.3634C0.189453 18.4148 0.199622 18.4658 0.219377 18.5133C0.239131 18.5607 0.26808 18.6038 0.304557 18.6401C0.340609 18.677 0.383753 18.7061 0.431389 18.7259C0.479024 18.7456 0.530165 18.7555 0.581728 18.755C0.688565 18.7469 0.797417 18.7429 0.904254 18.7298L1.07257 18.7076L1.46061 18.6572C1.68336 18.627 1.90711 18.5978 2.12885 18.5564C2.19171 18.5383 2.24849 18.5035 2.29313 18.4556L2.5441 18.4163L3.35041 18.3105C3.59936 18.2843 3.85134 18.2611 4.1023 18.24Z" fill="white"/>
<path d="M0.471233 12.5161C0.546825 12.5363 0.625441 12.5454 0.702041 12.5635L1.0417 12.6421L1.51844 12.752L2.17558 12.9032C2.32778 12.9374 2.47795 12.9798 2.62914 13.0181L3.40824 13.2146C3.49996 13.2378 3.59067 13.262 3.68037 13.2912L5.09142 13.7548C5.35852 13.8425 5.61956 13.9453 5.88262 14.0441C5.93016 14.058 5.98005 14.0618 6.02915 14.0554C6.07825 14.049 6.12548 14.0324 6.16785 14.0068C6.25205 13.9574 6.31329 13.8767 6.33821 13.7822C6.36314 13.6878 6.34972 13.5874 6.3009 13.5029L6.24244 13.4273C6.19739 13.3818 6.14103 13.3491 6.07916 13.3325C5.8161 13.2317 5.55506 13.1309 5.28796 13.0423L4.55623 12.8014L3.87489 12.5756C3.78418 12.5454 3.69448 12.5212 3.60175 12.498L2.82467 12.2964C2.67348 12.2571 2.5223 12.2158 2.37111 12.1795C1.99517 12.0888 1.61721 12.0001 1.24126 11.9074L0.938896 11.8348C0.912683 11.7502 0.855918 11.6783 0.779649 11.6332L0.694986 11.5969C0.664378 11.589 0.632882 11.5849 0.601251 11.5848C0.569293 11.585 0.537471 11.589 0.506509 11.5969C0.468477 11.6034 0.4308 11.6118 0.393625 11.6221C0.32469 11.6456 0.257355 11.6736 0.192046 11.7058L0.115446 11.7642C0.067846 11.8099 0.0330867 11.8672 0.0146567 11.9305C0.000537825 11.9791 -0.00343757 12.03 0.00297843 12.0801C0.00939443 12.1302 0.0260646 12.1784 0.0519491 12.2218C0.0996304 12.3055 0.165822 12.3773 0.245465 12.4315C0.316896 12.469 0.392741 12.4974 0.471233 12.5161Z" fill="white"/>
<path d="M1.86314 6.47375C1.93269 6.53624 2.00425 6.59571 2.0748 6.65618C2.23102 6.78922 2.39027 6.91823 2.54851 7.04825C2.70675 7.17827 2.85088 7.28208 2.99702 7.39799C3.18147 7.5391 3.36289 7.68423 3.55237 7.81828C4.00868 8.14322 4.4839 8.44074 4.97552 8.70926C5.23959 8.85373 5.50635 8.99282 5.77579 9.12653L7.1042 9.78771C7.37431 9.92176 7.64644 10.0518 7.91757 10.1828C7.98714 10.2218 8.06904 10.2326 8.14636 10.213C8.22188 10.1912 8.2859 10.1407 8.32485 10.0724C8.3638 10.0041 8.37461 9.92332 8.35499 9.84718C8.34527 9.80977 8.32813 9.7747 8.30458 9.74405C8.28103 9.71341 8.25156 9.68781 8.21792 9.66878C7.93571 9.5307 7.65249 9.39463 7.37229 9.25353C7.14787 9.14064 6.92345 9.02742 6.69902 8.91386L6.04591 8.58529C5.74958 8.43612 5.45729 8.27587 5.16803 8.11158C4.69206 7.83696 4.23298 7.53404 3.79326 7.20447L3.37902 6.87187C3.25706 6.77108 3.1341 6.67936 3.01718 6.57756C2.87104 6.45057 2.72388 6.32458 2.57975 6.19456C2.51223 6.13409 2.4447 6.07462 2.37818 6.01213C2.28444 5.92344 2.18768 5.83676 2.10302 5.739C2.09482 5.72741 2.08741 5.71529 2.08085 5.70271C2.04993 5.65019 2.00569 5.60677 1.95259 5.57685C1.89948 5.54694 1.83942 5.5316 1.77848 5.53238C1.71793 5.53224 1.65844 5.54824 1.60613 5.57874C1.52753 5.62597 1.47048 5.70202 1.44714 5.79069C1.42379 5.87937 1.436 5.97365 1.48115 6.05346C1.58436 6.21372 1.71344 6.35574 1.86314 6.47375Z" fill="white"/>
<path d="M8.20039 3.62743C8.24185 3.68673 8.28625 3.74392 8.33344 3.79877C8.37174 3.84413 8.41205 3.88848 8.44934 3.93484C8.69023 4.25031 8.92003 4.57284 9.16394 4.88528C9.42868 5.22662 9.69443 5.56729 9.96119 5.90729C10.2505 6.2792 10.5438 6.64809 10.836 7.01597L10.9217 7.08149C10.9862 7.11939 11.0596 7.13923 11.1344 7.13894C11.1899 7.1392 11.2449 7.12846 11.2963 7.10733C11.3477 7.08621 11.3943 7.05511 11.4336 7.01584C11.4729 6.97657 11.504 6.92991 11.5251 6.87855C11.5462 6.8272 11.557 6.77216 11.5567 6.71663C11.5516 6.67934 11.5466 6.64204 11.5426 6.60475C11.5231 6.5342 11.4856 6.46994 11.4337 6.41829C10.8905 5.73292 10.3543 5.04352 9.82109 4.35412C9.69208 4.17976 9.56105 4.00539 9.43103 3.83203L9.22139 3.55083C9.24683 3.49946 9.25994 3.44286 9.25969 3.38554C9.25865 3.28661 9.21926 3.19194 9.14983 3.12147C9.0267 2.99377 8.88501 2.88538 8.72954 2.79995C8.66673 2.76366 8.59547 2.74454 8.52292 2.74452C8.45062 2.74406 8.37944 2.7624 8.31637 2.79774C8.25329 2.83308 8.20047 2.8842 8.1631 2.94609C8.1055 3.03121 8.0727 3.13066 8.06836 3.23334C8.07631 3.3482 8.11081 3.45964 8.16915 3.55889C8.17797 3.58243 8.18841 3.60534 8.20039 3.62743Z" fill="white"/>
<path d="M14.9738 4.77143C14.9879 4.92967 15.003 5.08892 15.0212 5.24816C15.0423 5.42253 15.0705 5.59689 15.0947 5.77126C15.1078 5.80049 15.1199 5.83073 15.133 5.85995C15.1658 5.91599 15.2127 5.96247 15.269 5.99477C15.3253 6.02707 15.3891 6.04407 15.4541 6.04407C15.519 6.04407 15.5828 6.02707 15.6391 5.99477C15.6954 5.96247 15.7423 5.91599 15.7751 5.85995L15.8124 5.77126C15.8313 5.7054 15.8313 5.63554 15.8124 5.56968C15.7993 5.47595 15.7851 5.38221 15.772 5.28949C15.7388 5.02441 15.7186 4.75833 15.6995 4.49224C15.6783 4.206 15.6642 3.91875 15.6561 3.63251C15.6481 3.34627 15.6561 3.057 15.6632 2.76975C15.6692 2.56817 15.6733 2.37667 15.6874 2.18114L15.7418 1.45747C15.7549 1.28008 15.7781 1.10269 15.7972 0.92631C15.7967 0.920612 15.7967 0.914874 15.7972 0.909176L15.8245 0.883978L15.8839 0.807378C15.9179 0.748924 15.9356 0.682469 15.9353 0.61487C15.9235 0.506771 15.904 0.399659 15.8769 0.294359C15.8484 0.194776 15.7827 0.109963 15.6934 0.0575039C15.6307 0.0208091 15.5595 0.0010147 15.4868 5.39163e-05C15.4524 -0.000629173 15.4182 0.00518386 15.386 0.0171879C15.3401 0.0317382 15.2959 0.0509904 15.254 0.0746379C15.1876 0.113481 15.1338 0.170484 15.0988 0.238925C15.0529 0.333109 15.0291 0.436525 15.0292 0.541294C15.0292 0.598744 15.0212 0.655185 15.0161 0.711627C15.0081 0.798306 15 0.884986 14.9929 0.970657C14.9798 1.15409 14.9647 1.33652 14.9546 1.51895L14.9153 2.21541C14.9022 2.45831 14.8992 2.70323 14.8962 2.94714C14.8921 3.23473 14.8955 3.52198 14.9063 3.80889C14.9224 4.1294 14.9456 4.45092 14.9738 4.77143Z" fill="white"/>
</svg>
