<svg width="106" height="76" viewBox="0 0 106 76" fill="none" xmlns="http://www.w3.org/2000/svg">
<path d="M45.8234 40.5056C41.6466 40.4737 37.1869 41.0556 33.7992 43.6939C32.0478 45.1162 30.6712 46.9456 29.7898 49.0225C29.281 50.167 28.8872 51.3592 28.6141 52.5815C28.3232 53.8967 28.1239 55.2398 27.7054 56.5271C27.4967 57.0756 27.3158 57.6343 27.1634 58.201C27.0555 58.6932 27.0007 59.1956 27 59.6996C27.007 60.6372 27.1965 61.5645 27.558 62.4296C28.3152 64.2789 29.6742 65.8253 31.1449 67.1524C34.4397 70.2106 38.4737 72.3587 42.8502 73.3857C45.1817 74.0074 47.5531 74.4578 49.9164 74.9799C51.2209 75.269 52.5475 75.4477 53.882 75.5139C55.249 75.5697 56.612 75.5338 57.9791 75.5338C59.3461 75.5338 60.6493 75.6096 61.9845 75.6255C63.2833 75.6484 64.5814 75.551 65.8623 75.3345C67.8332 75.0454 69.76 74.5098 71.5974 73.7404C73.3547 72.9607 74.8692 71.7216 75.9814 70.1534C76.6277 69.1717 77.1738 68.1276 77.6115 67.0368C78.1222 65.8967 78.5226 64.7102 78.8071 63.4937C79.0056 62.3088 79.0511 61.1033 78.9426 59.9068C78.9323 58.7607 78.8538 57.6161 78.7075 56.4793C78.2492 54.189 77.2534 52.0403 75.8021 50.2102C74.4028 48.369 72.7372 46.7464 70.8601 45.3957C68.8155 43.9171 66.4402 43.0323 64.0848 42.2073C62.8334 41.7689 61.6138 41.1034 60.2627 41.0516C59.5812 41.0237 58.8917 41.1193 58.2102 41.0237C57.5287 40.928 56.9269 40.7726 56.2932 40.6251C55.0296 40.31 53.7439 40.0915 52.4472 39.9715C51.7697 39.9276 51.0882 39.9436 50.4106 39.9316C49.7331 39.9197 49.0078 39.8838 48.3143 39.9316C47.1187 40.0392 45.923 40.6371 44.7074 40.4776C44.3089 40.4258 44.3089 41.0635 44.7074 41.1153C45.9668 41.2787 47.1226 40.661 48.3581 40.5653C49.0197 40.5175 49.6933 40.5653 50.3509 40.5653C51.0085 40.5653 51.678 40.5654 52.3436 40.6012C53.6003 40.7089 54.8464 40.9168 56.07 41.2229C56.6878 41.3624 57.3055 41.5059 57.9312 41.6215C58.6005 41.6991 59.2752 41.7191 59.9479 41.6813C61.287 41.6813 62.4507 42.307 63.6862 42.7454C64.842 43.144 66.0018 43.5425 67.1297 44.0486C69.2737 44.9943 71.233 46.3126 72.9166 47.9424C74.6117 49.5059 76.0128 51.3606 77.0535 53.4185C77.5379 54.4062 77.8878 55.4544 78.0937 56.5351C78.2445 57.6421 78.3217 58.7578 78.3249 59.8749C78.4393 61.0293 78.4018 62.1937 78.2133 63.3383C77.931 64.5335 77.5305 65.6977 77.0176 66.8137C76.5894 67.8743 76.0553 68.8891 75.4235 69.8426C74.8896 70.6062 74.2448 71.2859 73.5104 71.8592C72.0089 72.9501 70.2999 73.7219 68.4887 74.127C67.5243 74.3741 66.5438 74.5614 65.5634 74.7328C64.309 74.9312 63.0388 75.0126 61.7692 74.9759C60.466 74.9759 59.1627 74.8842 57.8595 74.8882C56.5562 74.8922 55.1972 74.924 53.874 74.8882C51.411 74.7846 49.0038 74.1668 46.6005 73.6487C44.301 73.1942 42.0368 72.5762 39.8252 71.7994C38.7279 71.4004 37.6621 70.9194 36.6369 70.3607C35.7361 69.8503 34.867 69.286 34.0344 68.6709C32.4274 67.5634 30.9711 66.2519 29.7021 64.7691C28.5384 63.3423 27.6417 61.6086 27.6417 59.7315C27.6415 59.247 27.6977 58.7642 27.809 58.2927C27.9446 57.7228 28.1757 57.1847 28.3551 56.6268C28.7536 55.3873 28.9449 54.1 29.2239 52.8286C29.713 50.5065 30.6883 48.3142 32.0855 46.3961C33.3229 44.7451 34.9721 43.4478 36.868 42.6338C38.759 41.8544 40.7652 41.3912 42.8064 41.2628C43.8067 41.1831 44.7991 41.1552 45.8114 41.1631C45.896 41.1631 45.9771 41.1296 46.0369 41.0698C46.0967 41.01 46.1303 40.9289 46.1303 40.8443C46.1303 40.7598 46.0967 40.6787 46.0369 40.6189C45.9771 40.5591 45.896 40.5255 45.8114 40.5255L45.8234 40.5056Z" fill="#50735F"/>
<path d="M42.2287 48.2055C42.2287 49.2616 42.1888 50.4015 42.7309 51.35C43.2729 52.2986 44.325 52.7449 45.3294 53.1196C46.525 53.5659 47.6649 54.1239 48.8326 54.6181C50.1319 55.1641 51.4152 55.8138 52.8181 56.0967C53.4558 56.2163 54.0974 56.296 54.7351 56.4235C55.3926 56.5558 56.0584 56.6424 56.7278 56.6826C57.4054 56.7224 58.0869 56.6826 58.7604 56.7224C59.3216 56.7888 59.8753 56.9076 60.4144 57.0771C61.1926 57.2918 62.007 57.342 62.8057 57.2246C63.5855 57.1068 64.3482 56.8954 65.0774 56.5949C66.5082 56.0051 68.3415 54.8453 67.9668 53.0319C67.8832 52.6333 67.2694 52.8007 67.3531 53.1993C67.6321 54.5583 66.0777 55.459 65.0495 55.9174C63.802 56.4713 62.3075 56.8579 60.9484 56.555C60.4144 56.4355 59.8963 56.2561 59.3542 56.1565C58.765 56.0808 58.1705 56.0528 57.5767 56.0728C56.9356 56.0689 56.2954 56.025 55.6597 55.9413C55.046 55.8536 54.4442 55.7181 53.8304 55.6185C53.2046 55.5337 52.5863 55.4004 51.9811 55.2199C51.3514 55.0206 50.7456 54.7177 50.1359 54.4627C48.9322 53.9578 47.7366 53.4384 46.5489 52.9044C45.5565 52.458 44.3011 52.2388 43.5519 51.3899C42.8026 50.541 42.8664 49.2616 42.8743 48.2015C42.8743 48.1169 42.8407 48.0358 42.7809 47.9761C42.7211 47.9163 42.6401 47.8827 42.5555 47.8827C42.4709 47.8827 42.3898 47.9163 42.33 47.9761C42.2703 48.0358 42.2367 48.1169 42.2367 48.2015L42.2287 48.2055Z" fill="#50735F"/>
<path d="M44.1018 52.3303C44.4281 52.4144 44.7734 52.382 45.0783 52.2387C45.3533 52.1111 45.5804 51.9039 45.8754 51.7843C46.6311 51.4829 47.4305 51.3053 48.2427 51.2582C49.9475 51.1201 51.6594 51.0895 53.368 51.1666C54.1955 51.1906 55.017 51.3137 55.8151 51.5332C56.6002 51.7754 57.3629 52.0848 58.0948 52.4579C59.1988 52.9999 60.3147 53.5379 61.3908 54.1278C62.0001 54.4433 62.5791 54.8142 63.1205 55.2357C63.5705 55.5306 63.9097 55.9666 64.085 56.4752C64.1766 56.8738 64.7904 56.7063 64.7027 56.3038C64.4596 55.2357 63.2799 54.5024 62.4111 53.9763C61.3788 53.3506 60.2749 52.8445 59.1988 52.2984C57.7003 51.5372 56.1778 50.8159 54.488 50.6126C52.7291 50.4558 50.9603 50.4425 49.1992 50.5728C48.2586 50.5853 47.3226 50.7056 46.4094 50.9314C45.9964 51.0292 45.6002 51.1877 45.2337 51.4017C45.1059 51.5217 44.9532 51.6121 44.7865 51.6665C44.6198 51.7209 44.4432 51.738 44.2692 51.7166C43.8707 51.6289 43.6993 52.2426 44.1018 52.3303Z" fill="#50735F"/>
<path d="M28.5865 51.7445C28.6224 52.0593 28.7199 52.364 28.8734 52.6412C29.0549 52.9258 29.2212 53.2198 29.3716 53.522C29.5071 53.8528 29.5629 54.2075 29.6745 54.5423C29.7861 54.8771 29.8897 55.2238 30.0093 55.5586C30.368 56.5828 31.0256 57.7386 32.1893 57.9498C33.0622 58.1093 33.9111 57.7386 34.7002 57.4118C35.4216 57.1049 36.2944 56.6785 37.0915 56.8977C38.0918 57.1687 38.5063 58.2328 38.5422 59.1734C38.586 60.3332 38.2991 61.477 38.2473 62.6328C38.2034 63.7009 38.4306 64.773 39.2994 65.4784C39.7237 65.7991 40.2094 66.029 40.7264 66.1538C41.2434 66.2786 41.7806 66.2956 42.3045 66.2038C43.4164 66.0364 44.2135 65.3389 45.0226 64.6096C45.3788 64.257 45.781 63.954 46.2182 63.7089C46.7162 63.4751 47.2806 63.4243 47.8124 63.5654C50.2037 64.1553 52.1366 67.1523 54.8149 66.0444C55.7634 65.6458 56.7279 64.8487 57.8159 65.1436C58.7804 65.3987 59.3663 66.3991 59.9999 67.0846C60.8324 67.9604 61.9106 68.5635 63.0927 68.8142C63.6966 68.931 64.311 68.9845 64.926 68.9737C65.6087 68.9911 66.2914 68.9363 66.9626 68.8102C68.2064 68.5103 69.3421 67.87 70.2426 66.961C70.6334 66.5873 70.9428 66.1368 71.1513 65.6378C71.3407 65.1275 71.4925 64.604 71.6056 64.0716C71.8552 62.8498 72.3845 61.7026 73.152 60.7198C73.4954 60.2584 73.9839 59.9258 74.5389 59.7752C75.0969 59.6716 75.6748 59.7752 76.2368 59.7314C76.51 59.7251 76.7789 59.6616 77.026 59.5449C77.2732 59.4282 77.4931 59.2609 77.6715 59.0538C77.9266 58.739 77.4802 58.2846 77.2212 58.6035C76.8505 59.0658 76.3204 59.1096 75.7625 59.1056C75.211 59.0553 74.6549 59.0957 74.1165 59.2252C72.9766 59.5999 72.1795 60.8194 71.7013 61.8476C71.448 62.3879 71.2426 62.9494 71.0875 63.5256C70.944 64.0596 70.8404 64.6056 70.6651 65.1197C70.2944 66.2397 69.3339 67.0168 68.3455 67.5907C67.2336 68.2324 66.014 68.344 64.7586 68.328C64.1626 68.3344 63.5681 68.2661 62.989 68.1248C62.3688 67.9527 61.7797 67.6837 61.2434 67.3277C60.3865 66.7777 59.8804 65.8371 59.1231 65.1755C58.7563 64.8331 58.3029 64.5975 57.8119 64.494C57.2592 64.412 56.6947 64.4808 56.1779 64.6933C55.2174 65.0679 54.3326 65.8371 53.2406 65.6418C51.9493 65.4107 50.8732 64.4223 49.7892 63.7607C48.7649 63.1429 47.5095 62.565 46.3059 62.9875C45.2936 63.3262 44.5881 64.1831 43.7831 64.8288C43.4008 65.1492 42.9527 65.3817 42.4706 65.5098C41.9885 65.6379 41.4842 65.6585 40.9932 65.5701C40.5029 65.5103 40.0422 65.3036 39.6716 64.9771C39.301 64.6506 39.0379 64.2196 38.9168 63.7407C38.6777 62.6686 38.9686 61.5049 39.0802 60.4328C39.1918 59.3607 39.2277 58.2049 38.594 57.3002C38.3436 56.9206 37.9914 56.6191 37.5776 56.4302C37.1639 56.2413 36.7054 56.1727 36.2545 56.2321C35.3817 56.3437 34.5966 56.7821 33.7795 57.081C33.0582 57.352 32.2411 57.5314 31.5915 56.9974C30.5473 56.1325 30.3959 54.63 29.9973 53.4343C29.7901 52.8524 29.2839 52.3622 29.2002 51.7405C29.1484 51.342 28.5108 51.342 28.5626 51.7405L28.5865 51.7445Z" fill="#50735F"/>
<path d="M45.4273 1.15159C43.9172 2.63549 43.6476 4.17435 44.5644 5.93305C45.9127 8.40622 51.0361 6.20784 51.0361 3.13012C51.0361 1.42638 50.335 0.656951 48.2317 0.107358C47.0992 -0.167439 46.452 0.0523982 45.4273 1.15159ZM49.4182 2.30573C51.0361 4.28427 47.6385 7.03223 45.8048 5.16362C44.9959 4.39419 44.9959 4.17435 45.8588 2.91028C46.8295 1.31646 48.3935 1.04167 49.4182 2.30573Z" fill="#50735F"/>
<path d="M33.5874 22.213C32.8989 23.2941 32.8459 23.6355 33.4815 24.6598C33.8522 25.2857 34.5937 25.9117 35.0703 25.9686C36.1825 26.2531 38.0361 24.546 38.0361 23.2372C38.0361 20.8473 34.9114 20.1644 33.5874 22.213ZM36.4473 23.2372C36.4473 23.977 36.0766 24.3753 35.3881 24.3753C34.2229 24.3753 33.9052 22.9527 35.0173 22.4975C36.1825 21.9284 36.4473 22.0992 36.4473 23.2372Z" fill="#50735F"/>
<path d="M67.9271 12.8679C66.6736 14.089 66.7333 15.0193 68.1659 16.2985C69.4791 17.4614 70.7923 17.1707 71.7473 15.4845C72.2248 14.496 72.1652 14.089 71.1504 13.1005C69.7178 11.705 69.1209 11.6469 67.9271 12.8679ZM70.5535 14.5541C70.5535 15.0193 70.1954 15.4263 69.7178 15.4263C68.7031 15.4263 68.0465 14.6123 68.5837 14.0308C69.3 13.3331 70.5535 13.682 70.5535 14.5541Z" fill="#50735F"/>
<path d="M0.660556 30.4977C2.7068 30.6971 9.2138 28.9626 13.4398 31.5582C11.3344 33.3048 11.5964 34.5028 12.5198 35.712C14.9778 38.912 17.7313 34.4437 14.6583 31.4987C17.3168 29.7401 20.4438 30.8427 22.9731 32.7488C23.0081 32.7732 23.0477 32.7902 23.0895 32.7985C23.1314 32.8069 23.1745 32.8065 23.2161 32.7974C23.2578 32.7884 23.2972 32.7708 23.3317 32.7458C23.3663 32.7207 23.3953 32.6889 23.4169 32.6521C23.4386 32.6154 23.4524 32.5745 23.4575 32.5322C23.4626 32.4898 23.4589 32.4469 23.4466 32.4061C23.4344 32.3652 23.4138 32.3273 23.3862 32.2948C23.3586 32.2623 23.3246 32.2358 23.2863 32.2171C20.4525 30.0733 17.004 29.0251 14.0963 31.0559C11.7085 29.3881 8.58025 29.232 5.76805 29.3586C4.50531 29.4199 3.26348 29.5622 2.03555 29.6593C1.60949 29.6928 0.917228 29.5746 0.534925 29.7278C-0.0814263 29.9896 -0.0868732 30.4257 0.660556 30.4977ZM14.0032 31.9814C16.2447 34.0227 15.0102 37.6409 13.0674 35.2219C12.5702 34.5354 11.9097 33.7121 14.0032 31.9814Z" fill="#50735F"/>
<path d="M102.97 15.8782C100.973 15.384 99.1776 15.762 97.1794 16.5463C94.4126 17.6352 91.9098 19.581 91.0009 22.4396C87.2167 22.278 83.9571 25.1689 83.2606 26.5496C82.6509 27.7684 83.8002 27.8917 83.8564 27.3183C83.9599 26.2631 87.2477 23.0837 90.8081 23.1736C90.1037 26.3008 92.9567 28.1361 94.792 28.0355C96.1631 27.9604 97.7778 25.583 94.6139 23.5503C93.802 23.0347 92.8927 22.6917 91.9425 22.5426C93.3028 18.6664 99.2876 15.3644 103.963 17.1937C104.363 17.3502 104.494 17.537 104.784 17.4021C104.895 17.3501 104.981 17.2564 105.023 17.1414C105.065 17.0263 105.059 16.8994 105.008 16.7883C104.839 16.4095 103.365 15.9738 102.97 15.8782ZM95.4628 26.6274C94.7243 27.7838 92.7079 26.6166 92.0353 25.581C91.6335 24.8632 91.5255 24.0176 91.7339 23.2217C93.5122 23.4849 96.2681 24.9342 95.4628 26.6274Z" fill="#50735F"/>
</svg>
