<svg width="24" height="24" viewBox="0 0 24 24" fill="none" xmlns="http://www.w3.org/2000/svg">
<g clip-path="url(#clip0_1_100354)">
<path d="M1.24242 24.0001C0.92628 24.0001 0.610141 23.8798 0.369947 23.6378C-0.112248 23.1556 -0.112248 22.3739 0.369947 21.8917L21.9 0.361646C22.3822 -0.120549 23.1639 -0.120549 23.6461 0.361646C24.1283 0.843842 24.1283 1.6256 23.6461 2.1081L2.1164 23.6378C1.8744 23.8783 1.55826 24.0001 1.24242 24.0001Z" fill="#626262"/>
<path d="M22.7739 24.0001C22.4578 24.0001 22.142 23.8798 21.9015 23.6378L0.369947 2.1081C-0.112248 1.6256 -0.112248 0.843842 0.369947 0.361646C0.852142 -0.120549 1.6339 -0.120549 2.1164 0.361646L23.6461 21.8917C24.1283 22.3739 24.1283 23.1556 23.6461 23.6378C23.4041 23.8783 23.0883 24.0001 22.7739 24.0001Z" fill="#626262"/>
</g>
<defs>
<clipPath id="clip0_1_100354">
<rect width="24" height="24" fill="white"/>
</clipPath>
</defs>
</svg>
