<svg width="75" height="63" viewBox="0 0 75 63" fill="none" xmlns="http://www.w3.org/2000/svg">
<path d="M13.5488 59.923C13.2076 58.8784 12.7837 57.8626 12.2811 56.8854C12.0245 56.3554 11.7964 55.812 11.5977 55.2577C11.505 55.0141 11.3821 54.777 11.3067 54.5312C11.2312 54.2854 11.1514 54.0116 11.0911 53.7486C10.8434 52.7032 10.6662 51.6422 10.5607 50.573C10.4573 49.5619 10.4939 48.5551 10.44 47.5548C10.3967 47.0529 10.3902 46.5486 10.4206 46.0457C10.4701 45.5065 10.5844 44.9752 10.7612 44.4633C10.9216 43.9524 11.1966 43.4848 11.5654 43.0965C11.7508 42.9066 11.9628 42.7447 12.1949 42.6158C12.307 42.5576 12.3717 42.5468 12.4385 42.6158C12.6325 42.8313 12.6735 43.1935 12.7705 43.4522C12.8104 43.5823 12.8814 43.7007 12.9775 43.7972C13.1715 43.9675 13.4086 43.739 13.5703 43.6139C13.7926 43.4788 14.0499 43.4128 14.3098 43.4242C14.526 43.3798 14.7479 43.3696 14.9673 43.394C15.1889 43.4812 15.39 43.6133 15.558 43.7821C15.7647 43.9514 15.9513 44.1438 16.1142 44.3555C16.3471 44.6638 16.3837 45.1812 16.8106 45.2976C17.0567 45.3381 17.3093 45.3082 17.5393 45.2114C17.8039 45.1221 18.0813 45.0762 18.3606 45.0756C18.6251 45.0576 18.8906 45.0633 19.154 45.0928C19.4198 45.1632 19.6613 45.3048 19.8525 45.5024C20.081 45.6965 20.3785 45.7719 20.6049 45.9681C20.8027 46.1209 20.9566 46.3231 21.0511 46.5545C21.0952 46.7803 21.1823 46.9955 21.3077 47.1883C21.3372 47.2203 21.3763 47.2417 21.4191 47.2495C21.4618 47.2573 21.506 47.2509 21.5448 47.2314C21.6753 47.142 21.7861 47.0268 21.8704 46.893C21.9721 46.7457 22.1264 46.6431 22.3015 46.6063C22.6016 46.5025 22.914 46.4387 23.2307 46.4165C23.5478 46.3896 23.8644 46.4726 24.1276 46.6515C24.2613 46.7546 24.3777 46.8783 24.4725 47.018C24.5609 47.1582 24.5911 47.3242 24.6881 47.4621C24.9985 47.9601 25.5763 47.7553 25.9967 47.5397C26.2011 47.4155 26.4178 47.313 26.6434 47.2336C26.8935 47.1668 27.0487 47.294 27.1975 47.4923C27.3543 47.7196 27.4784 47.9678 27.5662 48.2296C27.6193 48.4572 27.687 48.6812 27.7688 48.9001C27.794 48.9595 27.8321 49.0125 27.8805 49.0552C27.9289 49.0978 27.9862 49.1291 28.0483 49.1467C28.1103 49.1643 28.1755 49.1677 28.2391 49.1568C28.3027 49.1458 28.363 49.1207 28.4156 49.0833C28.5169 49.0316 28.6117 48.954 28.7195 48.9109C28.8934 48.8527 29.0752 48.8222 29.2585 48.8203C29.5989 48.7954 29.9404 48.8493 30.2567 48.9777C30.3995 49.0404 30.5269 49.1337 30.6297 49.2511C30.7325 49.3684 30.8083 49.5069 30.8517 49.6568C30.9487 49.9241 31.0436 50.2432 31.3044 50.3962C31.5653 50.5493 31.9512 50.4803 32.2702 50.4825C32.602 50.4729 32.9336 50.5092 33.2555 50.5903C33.3776 50.6103 33.4919 50.6635 33.5858 50.7441C33.6797 50.8247 33.7497 50.9296 33.788 51.0473C33.8871 51.4785 33.6371 51.9808 33.4107 52.3408C33.2167 52.6448 33.0075 52.938 32.8178 53.2463C32.5977 53.6059 32.3535 53.9501 32.087 54.2768C31.6105 54.9134 31.0965 55.5209 30.5477 56.0963C29.9678 56.6526 29.2908 57.0686 28.67 57.5731C28.3638 57.8232 28.0663 58.0862 27.7602 58.3363C27.4584 58.5812 27.1376 58.8018 26.8008 58.996C26.471 59.1878 26.195 59.4271 25.8846 59.6427C25.5741 59.8583 25.2378 60.0157 24.9101 60.2076C24.2504 60.5978 23.6511 61.0699 22.9806 61.4472C22.641 61.6183 22.2928 61.7716 21.9372 61.9064C21.6505 62.025 21.3875 62.2362 21.0749 62.2664C20.7113 62.2636 20.3546 62.1663 20.04 61.984C19.6628 61.8212 19.2762 61.6808 18.8824 61.5636C18.1645 61.3329 17.4466 61.1109 16.7265 60.8845C16.3729 60.7746 16.0258 60.6409 15.6723 60.5309C15.2821 60.4081 14.9069 60.2421 14.5189 60.1235C14.1476 60.037 13.7825 59.9261 13.4259 59.7915C13.1952 59.6859 13.0745 60.061 13.303 60.1644C13.6794 60.3043 14.0638 60.4216 14.4542 60.5159C14.8617 60.6452 15.2562 60.8134 15.6658 60.947C16.0237 61.0591 16.3751 61.1971 16.7437 61.3049C17.1124 61.4127 17.5069 61.5356 17.8863 61.6585L19.0246 62.0271C19.4256 62.1543 19.8007 62.3203 20.1888 62.482C20.516 62.6355 20.8803 62.6924 21.2387 62.6458C21.5686 62.5898 21.8467 62.3785 22.1506 62.2535C22.5242 62.1134 22.8885 61.9499 23.2415 61.7641C23.5886 61.5658 23.9206 61.3329 24.2504 61.1173C24.5803 60.9018 24.8972 60.6862 25.2421 60.4706C25.5903 60.2932 25.926 60.0922 26.2468 59.8691C26.3977 59.757 26.5335 59.6276 26.6779 59.522C26.8224 59.4164 27.0186 59.3064 27.191 59.2159C27.5319 59.0061 27.8556 58.7697 28.159 58.5087C28.4781 58.2436 28.7907 57.9676 29.1162 57.7111C29.4417 57.4545 29.7867 57.2389 30.1079 56.9867C30.7464 56.4905 31.3149 55.9104 31.7981 55.262C32.059 54.9149 32.3435 54.5894 32.6109 54.2466C32.866 53.8995 33.1034 53.5397 33.3223 53.1687C33.6284 52.6815 33.9863 52.2395 34.1329 51.6704C34.2709 51.1379 34.1825 50.5924 33.65 50.323C33.3252 50.1788 32.9747 50.1018 32.6195 50.0966C32.4664 50.0966 32.3112 50.0836 32.156 50.0966C31.9741 50.1181 31.7903 50.1181 31.6084 50.0966C31.3217 50.0341 31.2548 49.6094 31.1643 49.3787C31.044 49.0708 30.8135 48.8187 30.5175 48.6716C30.1983 48.5136 29.8475 48.4296 29.4913 48.4258C29.1488 48.3982 28.8048 48.4545 28.4889 48.5896C28.3854 48.6568 28.2773 48.7166 28.1655 48.7686C28.1202 48.7837 28.1655 48.7923 28.1375 48.7556C28.0987 48.6889 28.0718 48.616 28.0577 48.5401C28.0021 48.299 27.9301 48.062 27.8421 47.8308C27.6373 47.3522 27.2751 46.7184 26.6607 46.8197C26.413 46.8795 26.176 46.9769 25.9579 47.1086C25.7611 47.2382 25.5417 47.3296 25.3111 47.378C25.0115 47.4039 24.977 47.0784 24.867 46.8714C24.6983 46.5688 24.441 46.325 24.1297 46.1729C23.498 45.8797 22.7715 46.0371 22.1399 46.2419C21.9795 46.285 21.8318 46.3655 21.7087 46.4769C21.5923 46.5933 21.5233 46.783 21.3831 46.8736L21.6181 46.9188C21.5388 46.7938 21.4867 46.6535 21.4651 46.5071C21.4157 46.3354 21.3345 46.1745 21.2258 46.0328C21.1182 45.8904 20.9945 45.7609 20.8571 45.6469C20.6859 45.5211 20.5015 45.4141 20.3074 45.3278C20.15 45.2256 20.002 45.1094 19.8654 44.9807C19.7122 44.8626 19.5371 44.7762 19.3502 44.7263C18.9696 44.6527 18.5805 44.6338 18.1946 44.6703C17.8174 44.6703 17.4918 44.8384 17.1275 44.9031C17.0746 44.9229 17.0172 44.9273 16.9619 44.9159C16.9065 44.9044 16.8556 44.8776 16.8149 44.8384C16.7398 44.7253 16.6817 44.6019 16.6424 44.472C16.4868 44.1528 16.2666 43.8694 15.9957 43.6398C15.7546 43.3943 15.474 43.1909 15.1656 43.0383C14.853 42.9068 14.465 43.006 14.1395 43.0383C13.9233 43.0464 13.7102 43.0924 13.5099 43.1741C13.3547 43.2474 13.2405 43.4156 13.0788 43.4673L13.2663 43.5298C13.1561 43.3905 13.0821 43.2261 13.0508 43.0512C12.9958 42.836 12.9101 42.6298 12.7964 42.439C12.4277 41.8957 11.8305 42.3355 11.4684 42.6546C10.9208 43.1586 10.5257 43.8062 10.3279 44.5237C10.1051 45.2345 9.9945 45.9756 10.0002 46.7205C10.0002 47.0396 10.0412 47.3673 10.0563 47.6756C10.0714 48.0356 10.0735 48.3956 10.0757 48.7535C10.0757 49.4606 10.1252 50.1548 10.2007 50.8576C10.2736 51.5972 10.3844 52.3326 10.5327 53.0609C10.6634 53.7722 10.8634 54.469 11.1299 55.1413C11.3067 55.5552 11.4403 55.9864 11.6149 56.4025C11.7896 56.8185 12.0138 57.2174 12.21 57.6249C12.5848 58.3976 12.9046 59.1958 13.1672 60.0135C13.2448 60.2507 13.6307 60.1709 13.5531 59.9295L13.5488 59.923Z" fill="#50735F"/>
<path d="M12.8285 42.5382C12.9237 42.3304 13.0543 42.1407 13.2144 41.9777C13.3654 41.8332 13.5206 41.6931 13.6715 41.5465C14.0202 41.2191 14.3919 40.9172 14.7839 40.6432C15.4846 40.1409 16.196 39.6235 17.0088 39.313C17.4546 39.165 17.9117 39.0533 18.3756 38.9789C18.888 38.8705 19.4074 38.7984 19.9299 38.7633C20.9583 38.6943 21.9672 38.8689 22.9934 38.8948C23.2888 38.8947 23.5836 38.9185 23.8752 38.9659C24.1619 39.0177 24.4422 39.1017 24.7246 39.1815C25.0523 39.2677 25.3886 39.341 25.7249 39.3971C25.9728 39.4359 25.9901 39.0435 25.7421 39.0026C24.9251 38.8711 24.149 38.5606 23.3168 38.5175C22.7821 38.4916 22.254 38.4809 21.7215 38.4248C21.2041 38.3659 20.6831 38.3457 20.1628 38.3644C19.6373 38.3876 19.1142 38.4489 18.5976 38.5477C18.0995 38.6285 17.6064 38.7379 17.1209 38.8754C16.2585 39.1492 15.5018 39.6644 14.771 40.1861C14.3306 40.4829 13.9113 40.81 13.5163 41.1649C13.1347 41.5249 12.7358 41.8569 12.5008 42.3355C12.4762 42.3804 12.4682 42.4326 12.4785 42.4827C12.4888 42.5329 12.5166 42.5778 12.5569 42.6093C12.6004 42.6379 12.6534 42.648 12.7043 42.6375C12.7553 42.627 12.7999 42.5967 12.8285 42.5533V42.5382Z" fill="#50735F"/>
<path d="M26.1882 41.0677C25.757 40.5331 25.8239 39.578 26.2227 39.0477C26.4383 38.7545 26.8199 38.595 27.1454 38.4484C27.3028 38.3919 27.4723 38.3778 27.6369 38.4074C27.8424 38.4188 28.0469 38.4433 28.2492 38.4807C28.4298 38.5125 28.6043 38.5721 28.7666 38.6575C28.9299 38.7561 29.0668 38.893 29.1655 39.0563C29.381 39.3581 29.6656 39.5759 29.6785 39.979C29.68 40.1627 29.6423 40.3447 29.568 40.5127C29.4936 40.6807 29.3843 40.831 29.2474 40.9535C28.9763 41.1868 28.6631 41.3661 28.3247 41.4817C27.9538 41.5882 27.5632 41.6059 27.1842 41.5334C26.8081 41.4961 26.4548 41.3354 26.1796 41.0764C26.145 41.0375 26.0964 41.0139 26.0444 41.0109C25.9925 41.0079 25.9414 41.0256 25.9026 41.0602C25.8637 41.0948 25.8401 41.1434 25.8371 41.1953C25.8341 41.2473 25.8518 41.2983 25.8864 41.3372C26.1736 41.6267 26.5448 41.8183 26.9471 41.8848C27.3606 41.9839 27.7902 41.9949 28.2082 41.9171C28.627 41.8112 29.0196 41.6204 29.3616 41.3566C29.5465 41.2254 29.7029 41.058 29.8211 40.8646C29.9393 40.6711 30.017 40.4557 30.0494 40.2313C30.0807 40.0158 30.062 39.7959 29.9947 39.5888C29.9274 39.3817 29.8133 39.1928 29.6613 39.0369C29.5169 38.8752 29.4069 38.6726 29.2517 38.5238C29.0779 38.3669 28.8719 38.2499 28.648 38.181C28.419 38.1079 28.1826 38.0601 27.9431 38.0387C27.7174 38.0008 27.4879 37.9907 27.2597 38.0086C27.0539 38.0571 26.8568 38.1371 26.6754 38.2457C26.4725 38.337 26.282 38.4536 26.1084 38.5928C25.3862 39.2288 25.2763 40.5913 25.8929 41.3372C26.0545 41.5248 26.3434 41.2618 26.1882 41.0677Z" fill="#50735F"/>
<path d="M28.4997 39.4853C28.7454 39.3408 28.9503 39.1446 29.1874 38.9873C29.4317 38.8482 29.7002 38.7568 29.9786 38.7178C30.2739 38.6531 30.5736 38.61 30.869 38.5453C30.9838 38.5217 31.1015 38.5151 31.2182 38.5259C31.332 38.5424 31.4481 38.5228 31.5502 38.4698C31.7658 38.3405 31.5912 37.9869 31.3734 38.1184C31.3001 38.1616 31.188 38.1184 31.1083 38.1184C30.9757 38.1191 30.8438 38.1372 30.7159 38.1723C30.4141 38.2392 30.1058 38.2801 29.804 38.3491C29.5302 38.3942 29.2662 38.4861 29.0236 38.6208C28.7778 38.776 28.5708 38.9829 28.3207 39.1295C28.0707 39.2761 28.2798 39.6103 28.4997 39.4809V39.4853Z" fill="#50735F"/>
<path d="M29.3467 41.2337C29.7111 41.6368 30.0646 42.0508 30.4462 42.4388C30.9241 42.9253 31.3437 43.4657 31.6966 44.0493C32.0647 44.617 32.3453 45.2369 32.5288 45.8882C32.6085 46.2159 32.6538 46.5522 32.7077 46.8864C32.7412 47.046 32.76 47.2084 32.7638 47.3714C32.7629 47.5394 32.7796 47.707 32.8133 47.8716C32.8845 48.2683 32.9039 48.6693 32.9362 49.0724C32.9556 49.288 32.9772 49.5036 32.9966 49.7084C32.9919 49.9011 32.9754 50.0933 32.947 50.284C32.9457 50.3098 32.9495 50.3355 32.9582 50.3598C32.9669 50.3841 32.9803 50.4064 32.9976 50.4256C33.0149 50.4447 33.0358 50.4602 33.0591 50.4712C33.0825 50.4823 33.1077 50.4886 33.1335 50.4899C33.1592 50.4912 33.185 50.4874 33.2093 50.4787C33.2336 50.47 33.2559 50.4566 33.275 50.4393C33.2942 50.422 33.3097 50.4011 33.3207 50.3777C33.3318 50.3544 33.3381 50.3292 33.3394 50.3034C33.3394 50.1352 33.3976 49.9714 33.3954 49.8011C33.3933 49.6308 33.3609 49.4281 33.3437 49.2427C33.3092 48.8655 33.2963 48.4817 33.251 48.1044C33.2294 47.932 33.1863 47.7617 33.1647 47.587C33.1432 47.4124 33.1647 47.2615 33.1432 47.0976C33.0914 46.7441 33.0354 46.3884 32.9642 46.037C32.8123 45.3609 32.5524 44.7138 32.1946 44.1204C31.852 43.5138 31.4443 42.9463 30.9787 42.4281C30.5346 41.9408 30.084 41.4622 29.6421 40.9729C29.6249 40.9535 29.6042 40.9376 29.5809 40.9263C29.5577 40.9149 29.5324 40.9082 29.5066 40.9066C29.4808 40.905 29.4549 40.9085 29.4304 40.9169C29.4059 40.9253 29.3834 40.9385 29.364 40.9556C29.3446 40.9727 29.3287 40.9935 29.3174 41.0167C29.306 41.04 29.2993 41.0653 29.2977 41.0911C29.2961 41.1169 29.2996 41.1428 29.308 41.1673C29.3164 41.1917 29.3296 41.2143 29.3467 41.2337Z" fill="#50735F"/>
<path d="M12.9256 43.715C12.8889 44.7929 13.0053 45.8493 13.0183 46.9186C13.0183 47.4791 12.9838 48.0397 13.0032 48.6023C13.0139 48.8783 13.029 49.1564 13.0334 49.4345C13.0377 49.7126 13.0096 50.0015 13.0161 50.2968C13.0416 50.8339 13.105 51.3684 13.2058 51.8965C13.2964 52.457 13.3287 53.0175 13.3934 53.5802C13.4236 53.8605 13.4775 54.1256 13.4818 54.4081C13.4861 54.6905 13.5184 54.9384 13.5206 55.2014C13.4893 55.7133 13.4893 56.2267 13.5206 56.7386C13.5594 57.021 13.5443 57.3185 13.609 57.6009C13.6509 57.7306 13.6833 57.8632 13.706 57.9976C13.7168 58.142 13.706 58.2843 13.7275 58.4287C13.7491 58.5732 13.7771 58.7155 13.7922 58.8599C13.7947 58.9996 13.8091 59.1388 13.8353 59.276C13.9022 59.5174 14.0207 59.7072 13.9625 59.981C13.9043 60.2548 14.2751 60.3518 14.3355 60.1038V60.065C14.3959 59.8193 14.0229 59.6942 13.9625 59.9422V59.981L14.3355 60.1038C14.3889 59.8742 14.3792 59.6343 14.3075 59.4097C14.2794 59.3256 14.232 59.2458 14.2126 59.1596C14.1918 59.0326 14.1795 58.9044 14.176 58.7758C14.163 58.6486 14.1415 58.5258 14.1221 58.3986C14.1027 58.2714 14.107 58.1269 14.0984 57.9889C14.0833 57.7346 13.9712 57.5017 13.9604 57.2452C13.9496 56.9886 13.9043 56.7364 13.8892 56.482C13.8763 56.2249 13.8763 55.9673 13.8892 55.7102C13.9065 55.446 13.9065 55.181 13.8892 54.9168C13.8677 54.6474 13.8892 54.3779 13.8569 54.1084C13.8246 53.8389 13.7728 53.5608 13.7491 53.2849C13.7254 53.0089 13.6995 52.72 13.6672 52.4398C13.6025 51.8814 13.4818 51.3316 13.4257 50.7711C13.3697 50.2106 13.4257 49.6544 13.4063 49.096C13.3869 48.5377 13.3826 47.9771 13.4063 47.4145C13.4365 46.1921 13.277 44.9697 13.3201 43.7495C13.3176 43.7002 13.2968 43.6536 13.2617 43.6189C13.2267 43.5841 13.18 43.5636 13.1307 43.5615C13.0814 43.5593 13.033 43.5756 12.9951 43.6072C12.9572 43.6388 12.9324 43.6834 12.9256 43.7323V43.715Z" fill="#50735F"/>
<path d="M16.6295 45.1057C16.597 45.1984 16.576 45.2947 16.567 45.3925C16.569 45.4984 16.5537 45.604 16.5217 45.705C16.4701 45.9343 16.4355 46.167 16.4182 46.4014C16.3773 46.6428 16.3255 46.8735 16.3083 47.1193C16.291 47.3651 16.2716 47.6432 16.2393 47.904C16.2069 48.1649 16.1487 48.4085 16.0927 48.6607C16.0366 48.913 16.0496 49.1372 15.9978 49.3722C15.8912 49.8696 15.8192 50.3739 15.7822 50.8813C15.7723 51.1317 15.7493 51.3814 15.7133 51.6294C15.6724 51.8636 15.6508 52.1008 15.6486 52.3386C15.6486 52.5909 15.6119 52.8431 15.5925 53.0932C15.5731 53.3433 15.5602 53.6127 15.5278 53.8714C15.4653 54.3845 15.3963 54.9041 15.3123 55.4129C15.2282 55.9217 15.2002 56.452 15.1247 56.9716C15.0406 57.5558 14.9889 58.1465 14.9264 58.7351C14.9134 58.8644 14.8682 58.9851 14.8466 59.1145C14.825 59.2438 14.8164 59.3559 14.7884 59.4767C14.7216 59.7483 14.7711 60.035 14.7022 60.311C14.6332 60.5869 15.0148 60.6796 15.0773 60.4339C15.1299 60.1997 15.156 59.9603 15.1549 59.7203C15.1669 59.6122 15.1856 59.5049 15.2109 59.3991C15.2226 59.2825 15.2406 59.1666 15.2648 59.052C15.3133 58.8098 15.3479 58.5651 15.3683 58.319C15.4071 58.0538 15.4265 57.7886 15.4502 57.5235C15.474 57.2583 15.5192 56.9974 15.5537 56.7344C15.5882 56.4714 15.5947 56.2256 15.6227 55.9734C15.6507 55.7212 15.7068 55.4431 15.7499 55.1779C15.793 54.9127 15.8124 54.6626 15.8491 54.4061C15.9224 53.8973 15.9633 53.3928 16.0129 52.8819C16.0366 52.6297 16.0409 52.3817 16.0453 52.1295C16.0496 51.8773 16.1229 51.6531 16.1487 51.4138C16.2026 50.9093 16.2177 50.4048 16.2996 49.9047C16.3406 49.6589 16.4096 49.4174 16.4333 49.1695C16.4462 49.0574 16.4462 48.941 16.4656 48.8289C16.485 48.7168 16.526 48.5702 16.5519 48.4408C16.608 48.1558 16.6483 47.8679 16.6726 47.5785C16.6822 47.2998 16.7081 47.022 16.7502 46.7463C16.7761 46.6148 16.8084 46.4876 16.8257 46.354C16.8299 46.2203 16.8429 46.0871 16.8645 45.9551C16.9071 45.8319 16.9409 45.7058 16.9658 45.5779C16.9679 45.4668 16.9816 45.3562 17.0068 45.248C17.0736 45.0044 16.7006 44.8815 16.6317 45.1251L16.6295 45.1057Z" fill="#50735F"/>
<path d="M21.2839 47.031C21.2889 47.2718 21.2745 47.5126 21.2407 47.751C21.1886 47.9707 21.1223 48.1867 21.0424 48.3978C20.8893 48.8915 20.7449 49.3895 20.5961 49.8853C20.4603 50.3381 20.3396 50.7951 20.2016 51.2478C20.0636 51.7006 19.7898 52.1619 19.6088 52.6276C19.4277 53.0933 19.2142 53.4899 19.031 53.947C18.9447 54.1626 18.8887 54.3782 18.8046 54.5808C18.7205 54.7835 18.589 55.0249 18.4985 55.2577C18.3217 55.7148 18.1392 56.1711 17.9509 56.6267C17.7547 57.1032 17.593 57.5968 17.3774 58.0647C17.1619 58.5325 16.9678 59.0391 16.7113 59.5069C16.5978 59.7472 16.497 59.9933 16.4095 60.2442C16.362 60.3542 16.3534 60.4771 16.2952 60.5827C16.2264 60.6814 16.1665 60.786 16.1163 60.8953C16.0322 61.1325 16.4051 61.2553 16.4914 61.0182C16.5363 60.9262 16.5889 60.8382 16.6488 60.7552C16.691 60.661 16.7235 60.5628 16.7458 60.462C16.7803 60.3499 16.8406 60.2464 16.8773 60.1386C16.9121 60.0162 16.956 59.8966 17.0088 59.7807C17.1209 59.5651 17.2416 59.3496 17.3451 59.134C17.4486 58.9184 17.524 58.6899 17.6211 58.47C18.0199 57.5451 18.367 56.5987 18.7593 55.6674C18.9534 55.2125 19.1646 54.7619 19.3242 54.2919C19.4729 53.8607 19.6993 53.4684 19.8675 53.0458C20.055 52.5737 20.2749 52.121 20.4732 51.6553C20.5603 51.426 20.6324 51.1912 20.6888 50.9525C20.7535 50.7153 20.8268 50.4825 20.9044 50.2475C21.0697 49.6913 21.2364 49.1358 21.4046 48.581C21.4757 48.3461 21.5706 48.1175 21.6202 47.8782C21.6683 47.6058 21.6885 47.3291 21.6805 47.0525C21.6805 46.8003 21.2882 46.7787 21.2882 47.0331L21.2839 47.031Z" fill="#50735F"/>
<path d="M24.9637 47.6648C24.9518 47.8611 24.8989 48.0528 24.8085 48.2274C24.7136 48.4797 24.6381 48.7384 24.5541 48.9949C24.487 49.2544 24.3976 49.5076 24.2867 49.7516C24.1703 49.9672 24.0712 50.2001 23.9504 50.4286C23.8297 50.6571 23.7025 50.9223 23.5882 51.1745C23.474 51.4267 23.3877 51.6639 23.2713 51.901C23.1549 52.1382 23.0557 52.371 22.9221 52.5952C22.7884 52.8194 22.6418 53.0372 22.5082 53.2614C22.3745 53.4856 22.2926 53.6925 22.1611 53.9081C22.0296 54.1237 21.8937 54.3113 21.7859 54.5333C21.5453 54.9826 21.2797 55.418 20.9904 55.8376C20.7166 56.2688 20.4558 56.7129 20.1583 57.1311C20.016 57.3273 19.8392 57.4933 19.7142 57.7003C19.6001 57.9324 19.4727 58.1577 19.3326 58.3751C19.2463 58.4893 19.1924 58.623 19.117 58.7437C19.0415 58.8645 18.9488 58.9787 18.8648 59.0951C18.6858 59.3366 18.4896 59.5651 18.3107 59.8087C18.1318 60.0523 18.0304 60.3153 17.8795 60.559C17.7123 60.7859 17.5712 61.0311 17.4591 61.2898C17.3729 61.5291 17.7459 61.6498 17.8321 61.4127C17.9324 61.1837 18.0583 60.9667 18.2072 60.7659C18.3495 60.5503 18.4422 60.3067 18.5931 60.0911C18.9014 59.66 19.2895 59.2676 19.5417 58.7976C19.6581 58.582 19.8026 58.3794 19.919 58.1509C20.0359 57.9186 20.1807 57.7014 20.3501 57.5041C20.6572 57.1017 20.9387 56.6805 21.1931 56.2429C21.4933 55.824 21.7697 55.3886 22.0209 54.9386C22.125 54.7149 22.2445 54.4988 22.3788 54.2919C22.5168 54.0763 22.6116 53.8607 22.7345 53.6451C22.9889 53.1902 23.2864 52.7698 23.5128 52.2999C23.7392 51.8299 23.944 51.3254 24.1833 50.8425C24.3191 50.5622 24.4463 50.2755 24.595 50.0017C24.7235 49.741 24.8274 49.4689 24.9055 49.189C24.9982 48.9044 25.0844 48.6133 25.1879 48.3266C25.2925 48.1194 25.352 47.8923 25.3625 47.6604C25.3517 47.4082 24.9594 47.3867 24.9701 47.641L24.9637 47.6648Z" fill="#50735F"/>
<path d="M27.7879 48.7858C27.7033 49.019 27.6025 49.2459 27.4861 49.4649C27.3804 49.6956 27.2554 49.9112 27.1325 50.1354C27.0096 50.3596 26.863 50.6032 26.7445 50.8446C26.6259 51.0861 26.5289 51.334 26.3909 51.569C26.1279 52.011 25.895 52.4766 25.5975 52.897C25.3 53.3174 24.981 53.6753 24.6942 54.0806C24.5397 54.2768 24.3957 54.4812 24.2631 54.6928C24.2049 54.7963 24.166 54.9084 24.11 55.0119C24.0479 55.1145 23.9757 55.2105 23.8944 55.2986C23.7326 55.5059 23.5822 55.7218 23.4438 55.9454C23.3254 56.1682 23.1944 56.3842 23.0515 56.5922C22.9006 56.784 22.7259 56.9544 22.5707 57.1419C22.4155 57.3295 22.2969 57.5537 22.1395 57.7456C21.8032 58.1616 21.523 58.6251 21.2211 59.0671C21.0465 59.3236 20.8697 59.5823 20.6886 59.8346C20.5076 60.0868 20.3027 60.2657 20.1217 60.5029C19.9406 60.74 19.7961 60.9642 19.6086 61.1669C19.5266 61.2531 19.4706 61.3545 19.393 61.4407C19.3108 61.5168 19.2344 61.5989 19.1645 61.6865C19.1374 61.7299 19.1284 61.7822 19.1393 61.8322C19.1503 61.8822 19.1804 61.926 19.2231 61.9541C19.2659 61.9823 19.318 61.9926 19.3682 61.9828C19.4185 61.9731 19.463 61.9441 19.4921 61.902C19.546 61.8363 19.6051 61.775 19.6689 61.7188C19.7465 61.639 19.7983 61.542 19.8716 61.4601C20.0397 61.2725 20.1885 61.0656 20.3416 60.8651C20.4946 60.6646 20.6779 60.4641 20.8503 60.2658C21.0156 60.0581 21.1703 59.8422 21.3138 59.619C21.6329 59.1598 21.939 58.692 22.256 58.2306C22.3982 58.015 22.5621 57.8404 22.6871 57.6248C22.8328 57.4121 22.9965 57.2123 23.1765 57.0276C23.5107 56.6547 23.7176 56.2084 24.0065 55.8031C24.1634 55.6169 24.3074 55.4203 24.4377 55.2146C24.546 54.9871 24.6699 54.7674 24.8085 54.557C25.1038 54.1474 25.3992 53.7378 25.7247 53.3498C26.0329 52.9427 26.3055 52.5099 26.5396 52.0562C26.8372 51.5345 27.0894 50.9934 27.3761 50.4652C27.5163 50.2087 27.6672 49.9607 27.7879 49.6956C27.9217 49.4418 28.0391 49.1797 28.1393 48.9108C28.2104 48.6672 27.8375 48.5443 27.7642 48.788L27.7879 48.7858Z" fill="#50735F"/>
<path d="M31.1058 50.1611C30.9809 50.3968 30.8412 50.6243 30.6876 50.8424C30.5518 51.058 30.3922 51.2736 30.2392 51.4892C30.0861 51.7047 29.9115 51.9203 29.767 52.1488C29.6226 52.3774 29.504 52.58 29.3359 52.7956C29.0039 53.2268 28.702 53.6924 28.3291 54.0891C28.1566 54.2702 27.9734 54.4492 27.7923 54.6195C27.6112 54.7898 27.4452 54.986 27.2705 55.1714C27.0891 55.3541 26.9199 55.5486 26.7639 55.7534C26.7036 55.8375 26.6583 55.9302 26.6001 56.0165C26.523 56.1186 26.4371 56.2138 26.3435 56.301C26.1495 56.4967 25.966 56.7025 25.7938 56.9176C25.6457 57.1272 25.4828 57.3261 25.3066 57.5126C25.1082 57.7002 24.8926 57.864 24.7029 58.0602C24.5132 58.2564 24.3817 58.4332 24.2028 58.6056C23.8082 58.9915 23.4676 59.44 23.1033 59.856C22.8877 60.091 22.6915 60.3368 22.4565 60.5589C22.2215 60.7809 22.0253 60.9232 21.8399 61.1258C21.6545 61.3285 21.4239 61.557 21.2061 61.7511C21.1177 61.833 21.0444 61.93 20.9539 62.0119C20.8454 62.1035 20.7444 62.2037 20.6521 62.3116C20.4904 62.5078 20.8181 62.7233 20.9797 62.5272C21.0581 62.4402 21.1432 62.3594 21.2341 62.2857C21.3182 62.2102 21.385 62.1197 21.467 62.0442C21.661 61.861 21.8507 61.6777 22.0361 61.4859C22.2215 61.294 22.4026 61.1388 22.5923 60.9685C22.7942 60.7777 22.985 60.5754 23.1636 60.3627C23.5474 59.9315 23.9182 59.5003 24.3019 59.0692C24.4636 58.8859 24.6533 58.7307 24.8042 58.5388C24.973 58.338 25.1608 58.154 25.3648 57.9891C25.5691 57.8224 25.7529 57.6321 25.9124 57.4221C26.0774 57.1905 26.2567 56.9695 26.4492 56.7602C26.6351 56.5884 26.8067 56.4016 26.9623 56.2019C27.0929 55.9868 27.2438 55.7847 27.4128 55.5982C27.7621 55.2296 28.1005 54.8566 28.4714 54.5203C28.8392 54.1407 29.1738 53.7303 29.4717 53.2936C29.836 52.8085 30.1551 52.2976 30.5086 51.8061C30.6811 51.5603 30.8708 51.3275 31.0261 51.0709C31.1973 50.8222 31.3528 50.563 31.4917 50.2948C31.5952 50.0641 31.2201 49.9434 31.1166 50.1719L31.1058 50.1611Z" fill="#50735F"/>
<path d="M40.1102 17.4359C38.3827 17.7787 37.4929 18.7259 37.328 20.3675C37.137 22.7028 41.7035 23.512 43.108 21.3715C43.8855 20.1866 43.7491 19.3316 42.5371 17.9895C41.8748 17.2815 41.3244 17.139 40.1102 17.4359ZM42.359 20.0598C42.5813 22.1742 38.9643 22.5348 38.5418 20.3984C38.3303 19.4941 38.4306 19.3412 39.6076 18.8559C41.0101 18.1904 42.2232 18.7131 42.359 20.0598Z" fill="#50735F"/>
<path d="M23.6121 21.2543C22.6399 21.692 22.4473 21.9053 22.4218 22.9076C22.394 23.5121 22.624 24.2858 22.9295 24.5429C23.5732 25.2484 25.6414 24.9071 26.2387 23.9968C27.3294 22.3347 25.4678 20.4338 23.6121 21.2543ZM25.1337 23.2718C24.7961 23.7862 24.3565 23.8941 23.8777 23.5799C23.0673 23.0481 23.4955 21.9138 24.4768 22.1047C25.5468 22.2407 25.6531 22.4803 25.1337 23.2718Z" fill="#50735F"/>
<path d="M40.6426 36.1427C39.2136 36.4199 38.8305 37.0942 39.2431 38.6376C39.6257 40.0456 40.6716 40.4427 42.1053 39.7059C42.8886 39.2363 43.0328 38.926 42.7782 37.7755C42.4187 36.1512 42.0301 35.8383 40.6426 36.1427ZM41.6997 38.514C41.4874 38.8375 41.0525 38.9572 40.7204 38.7392C40.0147 38.2762 39.9296 37.4104 40.5685 37.2512C41.3851 37.0928 42.0977 37.9075 41.6997 38.514Z" fill="#50735F"/>
<path d="M8.20522 14.2497C8.94818 15.7901 12.9941 19.6644 12.9767 23.7898C10.8252 23.0487 10.0871 23.7529 9.62702 24.9318C8.41572 28.0622 12.7815 28.0871 13.5458 24.63C15.945 25.7589 16.5134 28.4578 16.2523 31.0794C16.2501 31.1148 16.2552 31.1503 16.2673 31.1836C16.2795 31.2169 16.2984 31.2474 16.3228 31.2731C16.3473 31.2988 16.3768 31.3191 16.4095 31.3329C16.4423 31.3466 16.4775 31.3534 16.5129 31.3529C16.5484 31.3524 16.5834 31.3446 16.6157 31.3299C16.648 31.3153 16.6769 31.2941 16.7006 31.2677C16.7244 31.2413 16.7424 31.2103 16.7536 31.1766C16.7647 31.143 16.7688 31.1073 16.7656 31.072C17.0639 28.1313 16.3178 25.2274 13.6174 24.0391C13.7703 21.6212 12.5288 19.3306 11.223 17.3868C10.6334 16.516 9.9954 15.695 9.3955 14.8643C9.18748 14.576 8.97217 14.033 8.69798 13.8276C8.2455 13.5027 7.9332 13.6874 8.20522 14.2497ZM12.9195 24.3731C12.438 26.8486 9.33298 27.5357 10.2121 25.1091C10.485 24.459 10.7845 23.6337 12.9195 24.3731Z" fill="#50735F"/>
<path d="M64.0074 51.5981C62.8439 50.343 61.423 49.7867 59.6754 49.4202C57.2542 48.9149 54.6256 49.126 52.6889 50.6992C50.1308 48.8599 46.5446 49.3829 45.4301 50.0253C44.4499 50.5947 45.1929 51.2049 45.4936 50.8318C46.0472 50.1451 49.7848 49.4344 52.2199 51.1218C50.3029 52.9752 51.4495 55.5536 52.7718 56.3212C53.7596 56.8947 55.9675 55.9781 54.6948 53.1206C54.3654 52.3914 53.8896 51.7379 53.2968 51.2006C56.0118 49.1256 61.681 49.5604 64.0978 52.9663C64.3047 53.2578 64.3104 53.4474 64.5739 53.4861C64.6747 53.5005 64.7771 53.4744 64.8587 53.4135C64.9403 53.3527 64.9945 53.2619 65.0094 53.1612C65.0649 52.8207 64.2388 51.8451 64.0074 51.5981ZM53.8809 55.648C52.8396 56.1153 51.9699 54.3832 51.9747 53.3561C52.0229 52.6735 52.3337 52.0361 52.8418 51.5777C53.9584 52.5723 55.2137 54.8379 53.8809 55.648Z" fill="#50735F"/>
</svg>
