<svg width="19" height="19" viewBox="0 0 19 19" fill="none" xmlns="http://www.w3.org/2000/svg">
<circle cx="9.49906" cy="9.46836" r="8.5" transform="rotate(-3.64 9.49906 9.46836)" fill="#50735F"/>
<path d="M8.76885 7.90889L10.0163 7.82953L10.3554 13.1588L9.10787 13.2381L8.76885 7.90889ZM9.34171 6.99067C9.1155 7.00506 8.92144 6.94726 8.75953 6.81728C8.59719 6.68064 8.50925 6.50587 8.49571 6.29297C8.48216 6.08007 8.54746 5.89889 8.6916 5.74944C8.83531 5.59333 9.02027 5.50808 9.24648 5.49369C9.47269 5.4793 9.66675 5.5371 9.82866 5.66708C9.99015 5.79041 10.0775 5.9552 10.0906 6.16145C10.1045 6.38101 10.0399 6.57216 9.89659 6.73492C9.75953 6.8906 9.57457 6.97585 9.34171 6.99067Z" fill="white"/>
</svg>
